M48
INCH,TZ
T1C0.0059
T2C0.0157
T3C0.0394
T4C0.0591
%
G90
G05
T1
X35268Y-38571
X35335Y-39010
X35671Y-38504
X35671Y-38642
X35809Y-38963
X35811Y-38504
X35811Y-38642
X35898Y-37783
X35976Y-38965
X36370Y-38689
T2
X33220Y-36602
X33929Y-37193
X34126Y-35618
X34354Y-37563
X34520Y-36839
X34913Y-36839
X34913Y-39240
X35425Y-36642
X35528Y-39244
X35898Y-36878
X36488Y-36878
X37866Y-38571
X38457Y-35382
T3
X31370Y-36209
X31370Y-37209
X31370Y-38209
X31370Y-39209
X32370Y-36209
X32370Y-37209
X32370Y-38209
X32370Y-39209
T4
X31370Y-34043
X31370Y-41327
X39835Y-34043
X39835Y-37783
X39835Y-41327
T0
M30
