G04 #@! TF.GenerationSoftware,KiCad,Pcbnew,(5.1.10)-1*
G04 #@! TF.CreationDate,2021-12-08T09:06:10-05:00*
G04 #@! TF.ProjectId,WS2812_Driver,57533238-3132-45f4-9472-697665722e6b,rev?*
G04 #@! TF.SameCoordinates,Original*
G04 #@! TF.FileFunction,Soldermask,Bot*
G04 #@! TF.FilePolarity,Negative*
%FSLAX46Y46*%
G04 Gerber Fmt 4.6, Leading zero omitted, Abs format (unit mm)*
G04 Created by KiCad (PCBNEW (5.1.10)-1) date 2021-12-08 09:06:10*
%MOMM*%
%LPD*%
G01*
G04 APERTURE LIST*
%ADD10O,1.800000X1.800000*%
G04 APERTURE END LIST*
G36*
G01*
X93630000Y-93970000D02*
X93630000Y-91970000D01*
G75*
G02*
X93680000Y-91920000I50000J0D01*
G01*
X95680000Y-91920000D01*
G75*
G02*
X95730000Y-91970000I0J-50000D01*
G01*
X95730000Y-93970000D01*
G75*
G02*
X95680000Y-94020000I-50000J0D01*
G01*
X93680000Y-94020000D01*
G75*
G02*
X93630000Y-93970000I0J50000D01*
G01*
G37*
G36*
G01*
X84130000Y-101470000D02*
X84130000Y-99470000D01*
G75*
G02*
X84180000Y-99420000I50000J0D01*
G01*
X86180000Y-99420000D01*
G75*
G02*
X86230000Y-99470000I0J-50000D01*
G01*
X86230000Y-101470000D01*
G75*
G02*
X86180000Y-101520000I-50000J0D01*
G01*
X84180000Y-101520000D01*
G75*
G02*
X84130000Y-101470000I0J50000D01*
G01*
G37*
D10*
X82220000Y-99590000D03*
X79680000Y-99590000D03*
X82220000Y-97050000D03*
X79680000Y-97050000D03*
X82220000Y-94510000D03*
X79680000Y-94510000D03*
X82220000Y-91970000D03*
G36*
G01*
X78780000Y-92820000D02*
X78780000Y-91120000D01*
G75*
G02*
X78830000Y-91070000I50000J0D01*
G01*
X80530000Y-91070000D01*
G75*
G02*
X80580000Y-91120000I0J-50000D01*
G01*
X80580000Y-92820000D01*
G75*
G02*
X80530000Y-92870000I-50000J0D01*
G01*
X78830000Y-92870000D01*
G75*
G02*
X78780000Y-92820000I0J50000D01*
G01*
G37*
G36*
G01*
X87630000Y-104970000D02*
X87630000Y-102970000D01*
G75*
G02*
X87680000Y-102920000I50000J0D01*
G01*
X89680000Y-102920000D01*
G75*
G02*
X89730000Y-102970000I0J-50000D01*
G01*
X89730000Y-104970000D01*
G75*
G02*
X89680000Y-105020000I-50000J0D01*
G01*
X87680000Y-105020000D01*
G75*
G02*
X87630000Y-104970000I0J50000D01*
G01*
G37*
G36*
G01*
X84130000Y-104970000D02*
X84130000Y-102970000D01*
G75*
G02*
X84180000Y-102920000I50000J0D01*
G01*
X86180000Y-102920000D01*
G75*
G02*
X86230000Y-102970000I0J-50000D01*
G01*
X86230000Y-104970000D01*
G75*
G02*
X86180000Y-105020000I-50000J0D01*
G01*
X84180000Y-105020000D01*
G75*
G02*
X84130000Y-104970000I0J50000D01*
G01*
G37*
G36*
G01*
X94630000Y-104970000D02*
X94630000Y-102970000D01*
G75*
G02*
X94680000Y-102920000I50000J0D01*
G01*
X96680000Y-102920000D01*
G75*
G02*
X96730000Y-102970000I0J-50000D01*
G01*
X96730000Y-104970000D01*
G75*
G02*
X96680000Y-105020000I-50000J0D01*
G01*
X94680000Y-105020000D01*
G75*
G02*
X94630000Y-104970000I0J50000D01*
G01*
G37*
G36*
G01*
X91130000Y-104970000D02*
X91130000Y-102970000D01*
G75*
G02*
X91180000Y-102920000I50000J0D01*
G01*
X93180000Y-102920000D01*
G75*
G02*
X93230000Y-102970000I0J-50000D01*
G01*
X93230000Y-104970000D01*
G75*
G02*
X93180000Y-105020000I-50000J0D01*
G01*
X91180000Y-105020000D01*
G75*
G02*
X91130000Y-104970000I0J50000D01*
G01*
G37*
G36*
G01*
X99630000Y-106470000D02*
X99630000Y-103470000D01*
G75*
G02*
X99680000Y-103420000I50000J0D01*
G01*
X102680000Y-103420000D01*
G75*
G02*
X102730000Y-103470000I0J-50000D01*
G01*
X102730000Y-106470000D01*
G75*
G02*
X102680000Y-106520000I-50000J0D01*
G01*
X99680000Y-106520000D01*
G75*
G02*
X99630000Y-106470000I0J50000D01*
G01*
G37*
G36*
G01*
X99630000Y-97470000D02*
X99630000Y-94470000D01*
G75*
G02*
X99680000Y-94420000I50000J0D01*
G01*
X102680000Y-94420000D01*
G75*
G02*
X102730000Y-94470000I0J-50000D01*
G01*
X102730000Y-97470000D01*
G75*
G02*
X102680000Y-97520000I-50000J0D01*
G01*
X99680000Y-97520000D01*
G75*
G02*
X99630000Y-97470000I0J50000D01*
G01*
G37*
G36*
G01*
X99630000Y-87970000D02*
X99630000Y-84970000D01*
G75*
G02*
X99680000Y-84920000I50000J0D01*
G01*
X102680000Y-84920000D01*
G75*
G02*
X102730000Y-84970000I0J-50000D01*
G01*
X102730000Y-87970000D01*
G75*
G02*
X102680000Y-88020000I-50000J0D01*
G01*
X99680000Y-88020000D01*
G75*
G02*
X99630000Y-87970000I0J50000D01*
G01*
G37*
G36*
G01*
X78130000Y-106470000D02*
X78130000Y-103470000D01*
G75*
G02*
X78180000Y-103420000I50000J0D01*
G01*
X81180000Y-103420000D01*
G75*
G02*
X81230000Y-103470000I0J-50000D01*
G01*
X81230000Y-106470000D01*
G75*
G02*
X81180000Y-106520000I-50000J0D01*
G01*
X78180000Y-106520000D01*
G75*
G02*
X78130000Y-106470000I0J50000D01*
G01*
G37*
G36*
G01*
X78130000Y-87970000D02*
X78130000Y-84970000D01*
G75*
G02*
X78180000Y-84920000I50000J0D01*
G01*
X81180000Y-84920000D01*
G75*
G02*
X81230000Y-84970000I0J-50000D01*
G01*
X81230000Y-87970000D01*
G75*
G02*
X81180000Y-88020000I-50000J0D01*
G01*
X78180000Y-88020000D01*
G75*
G02*
X78130000Y-87970000I0J50000D01*
G01*
G37*
M02*
