G04 #@! TF.GenerationSoftware,KiCad,Pcbnew,(5.1.10)-1*
G04 #@! TF.CreationDate,2021-12-08T09:06:10-05:00*
G04 #@! TF.ProjectId,WS2812_Driver,57533238-3132-45f4-9472-697665722e6b,rev?*
G04 #@! TF.SameCoordinates,Original*
G04 #@! TF.FileFunction,Copper,L1,Top*
G04 #@! TF.FilePolarity,Positive*
%FSLAX46Y46*%
G04 Gerber Fmt 4.6, Leading zero omitted, Abs format (unit mm)*
G04 Created by KiCad (PCBNEW (5.1.10)-1) date 2021-12-08 09:06:10*
%MOMM*%
%LPD*%
G01*
G04 APERTURE LIST*
G04 #@! TA.AperFunction,ComponentPad*
%ADD10O,1.700000X1.700000*%
G04 #@! TD*
G04 #@! TA.AperFunction,ComponentPad*
%ADD11R,1.700000X1.700000*%
G04 #@! TD*
G04 #@! TA.AperFunction,SMDPad,CuDef*
%ADD12C,0.200000*%
G04 #@! TD*
G04 #@! TA.AperFunction,SMDPad,CuDef*
%ADD13R,0.750000X0.280000*%
G04 #@! TD*
G04 #@! TA.AperFunction,SMDPad,CuDef*
%ADD14R,0.850000X0.280000*%
G04 #@! TD*
G04 #@! TA.AperFunction,SMDPad,CuDef*
%ADD15R,0.503200X0.300000*%
G04 #@! TD*
G04 #@! TA.AperFunction,ComponentPad*
%ADD16R,3.000000X3.000000*%
G04 #@! TD*
G04 #@! TA.AperFunction,ViaPad*
%ADD17C,0.800000*%
G04 #@! TD*
G04 #@! TA.AperFunction,ViaPad*
%ADD18C,0.200000*%
G04 #@! TD*
G04 #@! TA.AperFunction,Conductor*
%ADD19C,0.250000*%
G04 #@! TD*
G04 #@! TA.AperFunction,Conductor*
%ADD20C,0.101600*%
G04 #@! TD*
G04 #@! TA.AperFunction,Conductor*
%ADD21C,0.150000*%
G04 #@! TD*
G04 #@! TA.AperFunction,Conductor*
%ADD22C,0.254000*%
G04 #@! TD*
G04 APERTURE END LIST*
D10*
X82220000Y-99590000D03*
X79680000Y-99590000D03*
X82220000Y-97050000D03*
X79680000Y-97050000D03*
X82220000Y-94510000D03*
X79680000Y-94510000D03*
X82220000Y-91970000D03*
D11*
X79680000Y-91970000D03*
D12*
X90255000Y-98500000D03*
X90605000Y-98500000D03*
X90955000Y-98500000D03*
X91305000Y-98500000D03*
X90255000Y-98150000D03*
X90255000Y-97800000D03*
X90255000Y-97450000D03*
X90605000Y-98150000D03*
X90605000Y-97800000D03*
X90605000Y-97450000D03*
X90955000Y-98150000D03*
X90955000Y-97800000D03*
X90955000Y-97450000D03*
X91305000Y-98150000D03*
X91305000Y-97800000D03*
X91305000Y-97450000D03*
D13*
X87755000Y-91470000D03*
X87755000Y-91970000D03*
X87755000Y-92470000D03*
X86605000Y-92470000D03*
X86605000Y-91970000D03*
D14*
X86655000Y-91470000D03*
D15*
X95378399Y-95970001D03*
X95378399Y-96470000D03*
X95378399Y-96969999D03*
X96981601Y-96969999D03*
X96981601Y-96470000D03*
X96981601Y-95970001D03*
G04 #@! TA.AperFunction,SMDPad,CuDef*
G36*
G01*
X91365000Y-94720000D02*
X90995000Y-94720000D01*
G75*
G02*
X90860000Y-94585000I0J135000D01*
G01*
X90860000Y-94315000D01*
G75*
G02*
X90995000Y-94180000I135000J0D01*
G01*
X91365000Y-94180000D01*
G75*
G02*
X91500000Y-94315000I0J-135000D01*
G01*
X91500000Y-94585000D01*
G75*
G02*
X91365000Y-94720000I-135000J0D01*
G01*
G37*
G04 #@! TD.AperFunction*
G04 #@! TA.AperFunction,SMDPad,CuDef*
G36*
G01*
X91365000Y-95740000D02*
X90995000Y-95740000D01*
G75*
G02*
X90860000Y-95605000I0J135000D01*
G01*
X90860000Y-95335000D01*
G75*
G02*
X90995000Y-95200000I135000J0D01*
G01*
X91365000Y-95200000D01*
G75*
G02*
X91500000Y-95335000I0J-135000D01*
G01*
X91500000Y-95605000D01*
G75*
G02*
X91365000Y-95740000I-135000J0D01*
G01*
G37*
G04 #@! TD.AperFunction*
G04 #@! TA.AperFunction,SMDPad,CuDef*
G36*
G01*
X89995000Y-101220000D02*
X90365000Y-101220000D01*
G75*
G02*
X90500000Y-101355000I0J-135000D01*
G01*
X90500000Y-101625000D01*
G75*
G02*
X90365000Y-101760000I-135000J0D01*
G01*
X89995000Y-101760000D01*
G75*
G02*
X89860000Y-101625000I0J135000D01*
G01*
X89860000Y-101355000D01*
G75*
G02*
X89995000Y-101220000I135000J0D01*
G01*
G37*
G04 #@! TD.AperFunction*
G04 #@! TA.AperFunction,SMDPad,CuDef*
G36*
G01*
X89995000Y-100200000D02*
X90365000Y-100200000D01*
G75*
G02*
X90500000Y-100335000I0J-135000D01*
G01*
X90500000Y-100605000D01*
G75*
G02*
X90365000Y-100740000I-135000J0D01*
G01*
X89995000Y-100740000D01*
G75*
G02*
X89860000Y-100605000I0J135000D01*
G01*
X89860000Y-100335000D01*
G75*
G02*
X89995000Y-100200000I135000J0D01*
G01*
G37*
G04 #@! TD.AperFunction*
G04 #@! TA.AperFunction,SMDPad,CuDef*
G36*
G01*
X85365000Y-93730000D02*
X84995000Y-93730000D01*
G75*
G02*
X84860000Y-93595000I0J135000D01*
G01*
X84860000Y-93325000D01*
G75*
G02*
X84995000Y-93190000I135000J0D01*
G01*
X85365000Y-93190000D01*
G75*
G02*
X85500000Y-93325000I0J-135000D01*
G01*
X85500000Y-93595000D01*
G75*
G02*
X85365000Y-93730000I-135000J0D01*
G01*
G37*
G04 #@! TD.AperFunction*
G04 #@! TA.AperFunction,SMDPad,CuDef*
G36*
G01*
X85365000Y-94750000D02*
X84995000Y-94750000D01*
G75*
G02*
X84860000Y-94615000I0J135000D01*
G01*
X84860000Y-94345000D01*
G75*
G02*
X84995000Y-94210000I135000J0D01*
G01*
X85365000Y-94210000D01*
G75*
G02*
X85500000Y-94345000I0J-135000D01*
G01*
X85500000Y-94615000D01*
G75*
G02*
X85365000Y-94750000I-135000J0D01*
G01*
G37*
G04 #@! TD.AperFunction*
D16*
X101180000Y-104970000D03*
X101180000Y-95970000D03*
X101180000Y-86470000D03*
X79680000Y-104970000D03*
X79680000Y-86470000D03*
G04 #@! TA.AperFunction,SMDPad,CuDef*
G36*
G01*
X89110000Y-92170000D02*
X89450000Y-92170000D01*
G75*
G02*
X89590000Y-92310000I0J-140000D01*
G01*
X89590000Y-92590000D01*
G75*
G02*
X89450000Y-92730000I-140000J0D01*
G01*
X89110000Y-92730000D01*
G75*
G02*
X88970000Y-92590000I0J140000D01*
G01*
X88970000Y-92310000D01*
G75*
G02*
X89110000Y-92170000I140000J0D01*
G01*
G37*
G04 #@! TD.AperFunction*
G04 #@! TA.AperFunction,SMDPad,CuDef*
G36*
G01*
X89110000Y-91210000D02*
X89450000Y-91210000D01*
G75*
G02*
X89590000Y-91350000I0J-140000D01*
G01*
X89590000Y-91630000D01*
G75*
G02*
X89450000Y-91770000I-140000J0D01*
G01*
X89110000Y-91770000D01*
G75*
G02*
X88970000Y-91630000I0J140000D01*
G01*
X88970000Y-91350000D01*
G75*
G02*
X89110000Y-91210000I140000J0D01*
G01*
G37*
G04 #@! TD.AperFunction*
G04 #@! TA.AperFunction,SMDPad,CuDef*
G36*
G01*
X90510000Y-92170000D02*
X90850000Y-92170000D01*
G75*
G02*
X90990000Y-92310000I0J-140000D01*
G01*
X90990000Y-92590000D01*
G75*
G02*
X90850000Y-92730000I-140000J0D01*
G01*
X90510000Y-92730000D01*
G75*
G02*
X90370000Y-92590000I0J140000D01*
G01*
X90370000Y-92310000D01*
G75*
G02*
X90510000Y-92170000I140000J0D01*
G01*
G37*
G04 #@! TD.AperFunction*
G04 #@! TA.AperFunction,SMDPad,CuDef*
G36*
G01*
X90510000Y-91210000D02*
X90850000Y-91210000D01*
G75*
G02*
X90990000Y-91350000I0J-140000D01*
G01*
X90990000Y-91630000D01*
G75*
G02*
X90850000Y-91770000I-140000J0D01*
G01*
X90510000Y-91770000D01*
G75*
G02*
X90370000Y-91630000I0J140000D01*
G01*
X90370000Y-91350000D01*
G75*
G02*
X90510000Y-91210000I140000J0D01*
G01*
G37*
G04 #@! TD.AperFunction*
G04 #@! TA.AperFunction,SMDPad,CuDef*
G36*
G01*
X97510000Y-88670000D02*
X97850000Y-88670000D01*
G75*
G02*
X97990000Y-88810000I0J-140000D01*
G01*
X97990000Y-89090000D01*
G75*
G02*
X97850000Y-89230000I-140000J0D01*
G01*
X97510000Y-89230000D01*
G75*
G02*
X97370000Y-89090000I0J140000D01*
G01*
X97370000Y-88810000D01*
G75*
G02*
X97510000Y-88670000I140000J0D01*
G01*
G37*
G04 #@! TD.AperFunction*
G04 #@! TA.AperFunction,SMDPad,CuDef*
G36*
G01*
X97510000Y-87710000D02*
X97850000Y-87710000D01*
G75*
G02*
X97990000Y-87850000I0J-140000D01*
G01*
X97990000Y-88130000D01*
G75*
G02*
X97850000Y-88270000I-140000J0D01*
G01*
X97510000Y-88270000D01*
G75*
G02*
X97370000Y-88130000I0J140000D01*
G01*
X97370000Y-87850000D01*
G75*
G02*
X97510000Y-87710000I140000J0D01*
G01*
G37*
G04 #@! TD.AperFunction*
G04 #@! TA.AperFunction,SMDPad,CuDef*
G36*
G01*
X85010000Y-92150000D02*
X85350000Y-92150000D01*
G75*
G02*
X85490000Y-92290000I0J-140000D01*
G01*
X85490000Y-92570000D01*
G75*
G02*
X85350000Y-92710000I-140000J0D01*
G01*
X85010000Y-92710000D01*
G75*
G02*
X84870000Y-92570000I0J140000D01*
G01*
X84870000Y-92290000D01*
G75*
G02*
X85010000Y-92150000I140000J0D01*
G01*
G37*
G04 #@! TD.AperFunction*
G04 #@! TA.AperFunction,SMDPad,CuDef*
G36*
G01*
X85010000Y-91190000D02*
X85350000Y-91190000D01*
G75*
G02*
X85490000Y-91330000I0J-140000D01*
G01*
X85490000Y-91610000D01*
G75*
G02*
X85350000Y-91750000I-140000J0D01*
G01*
X85010000Y-91750000D01*
G75*
G02*
X84870000Y-91610000I0J140000D01*
G01*
X84870000Y-91330000D01*
G75*
G02*
X85010000Y-91190000I140000J0D01*
G01*
G37*
G04 #@! TD.AperFunction*
D17*
X96180000Y-97970000D03*
X84380000Y-92970000D03*
X89980000Y-93070000D03*
X87680000Y-93570000D03*
X97680000Y-89870000D03*
D18*
X89580000Y-97970000D03*
X89750000Y-99085000D03*
D17*
X87260000Y-95410000D03*
X91180000Y-93670000D03*
X88680006Y-99670000D03*
X92680000Y-93670000D03*
X88680000Y-93570000D03*
D18*
X90605000Y-97800000D03*
X90960000Y-98150000D03*
X92380000Y-98270000D03*
X90955000Y-98965000D03*
X91380000Y-98970000D03*
D17*
X86680000Y-90470000D03*
X86180000Y-94470000D03*
X90240000Y-99680000D03*
D18*
X90605000Y-98150000D03*
X91180000Y-95970000D03*
X90960000Y-97800000D03*
D19*
X96180000Y-96870000D02*
X96180000Y-97970000D01*
X95780000Y-96470000D02*
X96180000Y-96870000D01*
X95378399Y-96470000D02*
X95780000Y-96470000D01*
X84920000Y-92430000D02*
X84380000Y-92970000D01*
X85180000Y-92430000D02*
X84920000Y-92430000D01*
X84870000Y-93460000D02*
X85180000Y-93460000D01*
X84380000Y-92970000D02*
X84870000Y-93460000D01*
X89360000Y-92450000D02*
X89980000Y-93070000D01*
X89280000Y-92450000D02*
X89360000Y-92450000D01*
X90600000Y-92450000D02*
X89980000Y-93070000D01*
X90680000Y-92450000D02*
X90600000Y-92450000D01*
X87755000Y-93495000D02*
X87680000Y-93570000D01*
X87755000Y-92470000D02*
X87755000Y-93495000D01*
X97680000Y-88950000D02*
X97680000Y-89870000D01*
D20*
X89750000Y-97800000D02*
X89580000Y-97970000D01*
X90255000Y-97800000D02*
X89750000Y-97800000D01*
X89580000Y-97970000D02*
X89580000Y-97970000D01*
X90190000Y-99085000D02*
X89750000Y-99085000D01*
X90605000Y-98670000D02*
X90190000Y-99085000D01*
X90605000Y-98500000D02*
X90605000Y-98670000D01*
X91305000Y-97800000D02*
X91770000Y-97800000D01*
D19*
X85680000Y-91970000D02*
X85180000Y-91470000D01*
X86605000Y-91970000D02*
X85680000Y-91970000D01*
X81180000Y-90470000D02*
X79680000Y-91970000D01*
X84180000Y-90470000D02*
X81180000Y-90470000D01*
X85180000Y-91470000D02*
X84180000Y-90470000D01*
X90240000Y-95390000D02*
X91180000Y-94450000D01*
X87280000Y-95390000D02*
X87260000Y-95410000D01*
X87280000Y-95390000D02*
X90240000Y-95390000D01*
X95880001Y-95970001D02*
X95378399Y-95970001D01*
X96380000Y-96470000D02*
X95880001Y-95970001D01*
X96981601Y-96470000D02*
X96380000Y-96470000D01*
X91180000Y-94450000D02*
X91180000Y-93670000D01*
X93979999Y-95970001D02*
X95378399Y-95970001D01*
X93380000Y-96570000D02*
X93979999Y-95970001D01*
X93380000Y-96570000D02*
X92150000Y-97800000D01*
X83680000Y-94330000D02*
X84740000Y-95390000D01*
X83680000Y-92270000D02*
X83680000Y-94330000D01*
X84480000Y-91470000D02*
X83680000Y-92270000D01*
X84740000Y-95390000D02*
X87280000Y-95390000D01*
X85180000Y-91470000D02*
X84480000Y-91470000D01*
X88680006Y-100480006D02*
X88680006Y-99670000D01*
X89690000Y-101490000D02*
X88680006Y-100480006D01*
X90180000Y-101490000D02*
X89690000Y-101490000D01*
X92680000Y-94670002D02*
X93979999Y-95970001D01*
X92680000Y-93670000D02*
X92680000Y-94670002D01*
D21*
X92000000Y-97800000D02*
X91770000Y-97800000D01*
D19*
X92150000Y-97800000D02*
X92000000Y-97800000D01*
X96981601Y-95970001D02*
X97179999Y-95970001D01*
X97179999Y-95970001D02*
X98680000Y-94470000D01*
X98680000Y-88990000D02*
X97680000Y-87990000D01*
X98680000Y-94470000D02*
X98680000Y-88990000D01*
D20*
X91470000Y-97285000D02*
X91470000Y-96960000D01*
X91305000Y-97450000D02*
X91470000Y-97285000D01*
D19*
X90160000Y-90970000D02*
X90680000Y-91490000D01*
X88255000Y-90970000D02*
X90160000Y-90970000D01*
X87755000Y-91470000D02*
X88255000Y-90970000D01*
X90680000Y-91490000D02*
X90910000Y-91490000D01*
X90910000Y-91490000D02*
X91910000Y-92490000D01*
X91910000Y-92490000D02*
X91910000Y-96060000D01*
X91910000Y-96060000D02*
X91470000Y-96500000D01*
D21*
X91470000Y-96805000D02*
X91470000Y-96960000D01*
D19*
X91470000Y-96500000D02*
X91470000Y-96805000D01*
X89160000Y-91470000D02*
X89180000Y-91490000D01*
D20*
X90605000Y-97800000D02*
X90605000Y-97800000D01*
D19*
X88800000Y-91970000D02*
X89280000Y-91490000D01*
X87755000Y-91970000D02*
X88800000Y-91970000D01*
X88800000Y-93450000D02*
X88680000Y-93570000D01*
X88800000Y-91970000D02*
X88800000Y-93450000D01*
D20*
X90605000Y-97800000D02*
X90600000Y-97800000D01*
D19*
X100180001Y-96969999D02*
X101180000Y-95970000D01*
X96981601Y-96969999D02*
X100180001Y-96969999D01*
D20*
X89900000Y-98150000D02*
X89730000Y-98320000D01*
X90255000Y-98150000D02*
X89900000Y-98150000D01*
D21*
X88935000Y-98320000D02*
X89730000Y-98320000D01*
X88875000Y-98260000D02*
X88935000Y-98320000D01*
X80890000Y-98260000D02*
X88875000Y-98260000D01*
X79680000Y-97050000D02*
X80890000Y-98260000D01*
D20*
X89895000Y-98670000D02*
X89780000Y-98670000D01*
X90220000Y-98535000D02*
X90030000Y-98535000D01*
X90030000Y-98535000D02*
X89895000Y-98670000D01*
X90255000Y-98500000D02*
X90220000Y-98535000D01*
D21*
X82930000Y-98880000D02*
X82220000Y-99590000D01*
X89325000Y-98880000D02*
X82930000Y-98880000D01*
X89535000Y-98670000D02*
X89325000Y-98880000D01*
X89780000Y-98670000D02*
X89535000Y-98670000D01*
D20*
X90955000Y-97450000D02*
X90955000Y-96985000D01*
D21*
X84330000Y-96170000D02*
X82670000Y-94510000D01*
X90350000Y-96170000D02*
X84330000Y-96170000D01*
X90955000Y-96775000D02*
X90350000Y-96170000D01*
X82670000Y-94510000D02*
X82220000Y-94510000D01*
X90955000Y-96985000D02*
X90955000Y-96775000D01*
D20*
X90080000Y-97280000D02*
X89790000Y-97280000D01*
X90250000Y-97450000D02*
X90080000Y-97280000D01*
X90255000Y-97450000D02*
X90250000Y-97450000D01*
D21*
X82450000Y-97280000D02*
X82220000Y-97050000D01*
X89790000Y-97280000D02*
X82450000Y-97280000D01*
D20*
X90605000Y-97095000D02*
X90485000Y-96975000D01*
X90605000Y-97450000D02*
X90605000Y-97095000D01*
D21*
X80940000Y-95770000D02*
X79680000Y-94510000D01*
X82980000Y-95770000D02*
X80940000Y-95770000D01*
X83850000Y-96640000D02*
X82980000Y-95770000D01*
X90150000Y-96640000D02*
X83850000Y-96640000D01*
X90485000Y-96975000D02*
X90150000Y-96640000D01*
D20*
X90955000Y-98150000D02*
X90960000Y-98150000D01*
X90960000Y-98150000D02*
X90960000Y-98150000D01*
X92260000Y-98150000D02*
X92380000Y-98270000D01*
X91305000Y-98150000D02*
X92260000Y-98150000D01*
X90955000Y-98500000D02*
X90955000Y-98965000D01*
X91465000Y-98660000D02*
X91800000Y-98660000D01*
X91305000Y-98500000D02*
X91465000Y-98660000D01*
D19*
X95378399Y-96969999D02*
X95180001Y-96969999D01*
X95180001Y-96969999D02*
X93490000Y-98660000D01*
X93490000Y-98660000D02*
X92490000Y-98660000D01*
D20*
X91465000Y-98885000D02*
X91380000Y-98970000D01*
X91465000Y-98660000D02*
X91465000Y-98885000D01*
D21*
X92490000Y-98660000D02*
X91800000Y-98660000D01*
D19*
X86605000Y-93055000D02*
X86605000Y-92470000D01*
X85180000Y-94480000D02*
X86605000Y-93055000D01*
X86655000Y-90495000D02*
X86680000Y-90470000D01*
X86655000Y-91470000D02*
X86655000Y-90495000D01*
X86680000Y-92545000D02*
X86605000Y-92470000D01*
X85180000Y-94480000D02*
X86170000Y-94480000D01*
X86170000Y-94480000D02*
X86180000Y-94470000D01*
D20*
X90605000Y-98150000D02*
X90605000Y-98150000D01*
X90180000Y-99740000D02*
X90240000Y-99680000D01*
X90180000Y-100470000D02*
X90180000Y-99740000D01*
X90605000Y-98150000D02*
X90605000Y-98155000D01*
X90955000Y-97800000D02*
X90960000Y-97800000D01*
D21*
X91180000Y-95970000D02*
X91180000Y-95470000D01*
D20*
X90960000Y-97800000D02*
X90960000Y-97800000D01*
D22*
X103053000Y-106353182D02*
X102838150Y-106616613D01*
X102564497Y-106843000D01*
X78296818Y-106843000D01*
X78033387Y-106628150D01*
X77807000Y-106354497D01*
X77807000Y-103097000D01*
X103053000Y-103097000D01*
X103053000Y-106353182D01*
G04 #@! TA.AperFunction,Conductor*
D21*
G36*
X103053000Y-106353182D02*
G01*
X102838150Y-106616613D01*
X102564497Y-106843000D01*
X78296818Y-106843000D01*
X78033387Y-106628150D01*
X77807000Y-106354497D01*
X77807000Y-103097000D01*
X103053000Y-103097000D01*
X103053000Y-106353182D01*
G37*
G04 #@! TD.AperFunction*
D22*
X103009282Y-84627904D02*
X103053000Y-84680750D01*
X103053000Y-88343000D01*
X98071614Y-88343000D01*
X98048545Y-88330669D01*
X97951218Y-88301145D01*
X97850000Y-88291176D01*
X97510000Y-88291176D01*
X97408782Y-88301145D01*
X97311455Y-88330669D01*
X97288386Y-88343000D01*
X77807000Y-88343000D01*
X77807000Y-84678610D01*
X77837904Y-84640718D01*
X77890750Y-84597000D01*
X102971390Y-84597000D01*
X103009282Y-84627904D01*
G04 #@! TA.AperFunction,Conductor*
D21*
G36*
X103009282Y-84627904D02*
G01*
X103053000Y-84680750D01*
X103053000Y-88343000D01*
X98071614Y-88343000D01*
X98048545Y-88330669D01*
X97951218Y-88301145D01*
X97850000Y-88291176D01*
X97510000Y-88291176D01*
X97408782Y-88301145D01*
X97311455Y-88330669D01*
X97288386Y-88343000D01*
X77807000Y-88343000D01*
X77807000Y-84678610D01*
X77837904Y-84640718D01*
X77890750Y-84597000D01*
X102971390Y-84597000D01*
X103009282Y-84627904D01*
G37*
G04 #@! TD.AperFunction*
M02*
