G04 #@! TF.GenerationSoftware,KiCad,Pcbnew,(5.1.10)-1*
G04 #@! TF.CreationDate,2021-12-08T09:06:10-05:00*
G04 #@! TF.ProjectId,WS2812_Driver,57533238-3132-45f4-9472-697665722e6b,rev?*
G04 #@! TF.SameCoordinates,Original*
G04 #@! TF.FileFunction,Copper,L2,Bot*
G04 #@! TF.FilePolarity,Positive*
%FSLAX46Y46*%
G04 Gerber Fmt 4.6, Leading zero omitted, Abs format (unit mm)*
G04 Created by KiCad (PCBNEW (5.1.10)-1) date 2021-12-08 09:06:10*
%MOMM*%
%LPD*%
G01*
G04 APERTURE LIST*
G04 #@! TA.AperFunction,SMDPad,CuDef*
%ADD10R,2.000000X2.000000*%
G04 #@! TD*
G04 #@! TA.AperFunction,ComponentPad*
%ADD11O,1.700000X1.700000*%
G04 #@! TD*
G04 #@! TA.AperFunction,ComponentPad*
%ADD12R,1.700000X1.700000*%
G04 #@! TD*
G04 #@! TA.AperFunction,ComponentPad*
%ADD13R,3.000000X3.000000*%
G04 #@! TD*
G04 #@! TA.AperFunction,ViaPad*
%ADD14C,0.800000*%
G04 #@! TD*
G04 #@! TA.AperFunction,ViaPad*
%ADD15C,0.200000*%
G04 #@! TD*
G04 #@! TA.AperFunction,Conductor*
%ADD16C,0.250000*%
G04 #@! TD*
G04 #@! TA.AperFunction,Conductor*
%ADD17C,0.150000*%
G04 #@! TD*
G04 #@! TA.AperFunction,Conductor*
%ADD18C,0.101600*%
G04 #@! TD*
G04 #@! TA.AperFunction,Conductor*
%ADD19C,0.254000*%
G04 #@! TD*
G04 APERTURE END LIST*
D10*
X94680000Y-92970000D03*
X85180000Y-100470000D03*
D11*
X82220000Y-99590000D03*
X79680000Y-99590000D03*
X82220000Y-97050000D03*
X79680000Y-97050000D03*
X82220000Y-94510000D03*
X79680000Y-94510000D03*
X82220000Y-91970000D03*
D12*
X79680000Y-91970000D03*
D10*
X88680000Y-103970000D03*
X85180000Y-103970000D03*
X95680000Y-103970000D03*
X92180000Y-103970000D03*
D13*
X101180000Y-104970000D03*
X101180000Y-95970000D03*
X101180000Y-86470000D03*
X79680000Y-104970000D03*
X79680000Y-86470000D03*
D14*
X96180000Y-97970000D03*
X84380000Y-92970000D03*
X89980000Y-93070000D03*
X87680000Y-93570000D03*
X97680000Y-89870000D03*
D15*
X89580000Y-97970000D03*
X89750000Y-99085000D03*
D14*
X87260000Y-95410000D03*
X91180000Y-93670000D03*
X88680006Y-99670000D03*
X92680000Y-93670000D03*
X88680000Y-93570000D03*
D15*
X90605000Y-97800000D03*
X90960000Y-98150000D03*
X92380000Y-98270000D03*
X90955000Y-98965000D03*
X91380000Y-98970000D03*
D14*
X86680000Y-90470000D03*
X86180000Y-94470000D03*
X90240000Y-99680000D03*
D15*
X90605000Y-98150000D03*
X91180000Y-95970000D03*
X90960000Y-97800000D03*
D16*
X87260000Y-95410000D02*
X87260000Y-98249994D01*
X87260000Y-98249994D02*
X88680006Y-99670000D01*
X91180000Y-93670000D02*
X92580000Y-93670000D01*
X92580000Y-93670000D02*
X92680000Y-93670000D01*
X88680000Y-93570000D02*
X88680000Y-97370000D01*
X88680000Y-97370000D02*
X88940000Y-97630000D01*
X89245000Y-97630000D02*
X88940000Y-97630000D01*
D17*
X89800000Y-97630000D02*
X89245000Y-97630000D01*
D18*
X89805000Y-97625000D02*
X89800000Y-97630000D01*
X90430000Y-97625000D02*
X89805000Y-97625000D01*
X90605000Y-97800000D02*
X90430000Y-97625000D01*
D17*
X91830000Y-98520000D02*
X91980000Y-98670000D01*
D18*
X91135000Y-98325000D02*
X91635000Y-98325000D01*
X91635000Y-98325000D02*
X91830000Y-98520000D01*
X91130000Y-98320000D02*
X91135000Y-98325000D01*
D17*
X91980000Y-103770000D02*
X92180000Y-103970000D01*
X91980000Y-98670000D02*
X91980000Y-103770000D01*
D18*
X91130000Y-98320000D02*
X90960000Y-98150000D01*
D17*
X92380000Y-100670000D02*
X92380000Y-98270000D01*
X95680000Y-103970000D02*
X92380000Y-100670000D01*
X86780000Y-102370000D02*
X85180000Y-103970000D01*
X90480000Y-102370000D02*
X86780000Y-102370000D01*
X90955000Y-101895000D02*
X90480000Y-102370000D01*
X90955000Y-98965000D02*
X90955000Y-101895000D01*
X91380000Y-102170000D02*
X91380000Y-98970000D01*
X90780000Y-102770000D02*
X91380000Y-102170000D01*
X89580000Y-102770000D02*
X90780000Y-102770000D01*
X88680000Y-103670000D02*
X89580000Y-102770000D01*
D16*
X86680000Y-90470000D02*
X86680000Y-93970000D01*
X86680000Y-93970000D02*
X86180000Y-94470000D01*
D17*
X89450000Y-100470000D02*
X90240000Y-99680000D01*
X85180000Y-100470000D02*
X89450000Y-100470000D01*
D18*
X90430000Y-98330000D02*
X90430000Y-99490000D01*
X90430000Y-99490000D02*
X90240000Y-99680000D01*
X90440000Y-98320000D02*
X90430000Y-98330000D01*
X90440000Y-98315000D02*
X90605000Y-98150000D01*
X90440000Y-98320000D02*
X90440000Y-98315000D01*
X91130000Y-97630000D02*
X91130000Y-96980000D01*
D17*
X91130000Y-96020000D02*
X91180000Y-95970000D01*
X91130000Y-96980000D02*
X91130000Y-96020000D01*
X94680000Y-93020000D02*
X94680000Y-92970000D01*
X91730000Y-95970000D02*
X94680000Y-93020000D01*
X91180000Y-95970000D02*
X91730000Y-95970000D01*
D18*
X91130000Y-97630000D02*
X90960000Y-97800000D01*
D19*
X102826612Y-84811848D02*
X103053000Y-85085503D01*
X103053000Y-88343000D01*
X77807000Y-88343000D01*
X77807000Y-85086818D01*
X78021848Y-84823388D01*
X78295503Y-84597000D01*
X102563182Y-84597000D01*
X102826612Y-84811848D01*
G04 #@! TA.AperFunction,Conductor*
D17*
G36*
X102826612Y-84811848D02*
G01*
X103053000Y-85085503D01*
X103053000Y-88343000D01*
X77807000Y-88343000D01*
X77807000Y-85086818D01*
X78021848Y-84823388D01*
X78295503Y-84597000D01*
X102563182Y-84597000D01*
X102826612Y-84811848D01*
G37*
G04 #@! TD.AperFunction*
X103105000Y-106895000D02*
X77755000Y-106895000D01*
X77755000Y-99484122D01*
X81145000Y-99484122D01*
X81145000Y-99695878D01*
X81186312Y-99903566D01*
X81267348Y-100099203D01*
X81384993Y-100275272D01*
X81534728Y-100425007D01*
X81710797Y-100542652D01*
X81906434Y-100623688D01*
X82114122Y-100665000D01*
X82325878Y-100665000D01*
X82533566Y-100623688D01*
X82729203Y-100542652D01*
X82905272Y-100425007D01*
X83055007Y-100275272D01*
X83172652Y-100099203D01*
X83253688Y-99903566D01*
X83295000Y-99695878D01*
X83295000Y-99484122D01*
X83292191Y-99470000D01*
X83953912Y-99470000D01*
X83953912Y-101470000D01*
X83958256Y-101514108D01*
X83971122Y-101556520D01*
X83992015Y-101595608D01*
X84020132Y-101629868D01*
X84054392Y-101657985D01*
X84093480Y-101678878D01*
X84135892Y-101691744D01*
X84180000Y-101696088D01*
X86180000Y-101696088D01*
X86224108Y-101691744D01*
X86266520Y-101678878D01*
X86305608Y-101657985D01*
X86339868Y-101629868D01*
X86367985Y-101595608D01*
X86388878Y-101556520D01*
X86401744Y-101514108D01*
X86406088Y-101470000D01*
X86406088Y-100770000D01*
X89435277Y-100770000D01*
X89450000Y-100771450D01*
X89464723Y-100770000D01*
X89464733Y-100770000D01*
X89508810Y-100765659D01*
X89565360Y-100748504D01*
X89617477Y-100720647D01*
X89663158Y-100683158D01*
X89672553Y-100671710D01*
X90062356Y-100281908D01*
X90178443Y-100305000D01*
X90301557Y-100305000D01*
X90422306Y-100280981D01*
X90536048Y-100233868D01*
X90638414Y-100165469D01*
X90655000Y-100148883D01*
X90655001Y-101770735D01*
X90355737Y-102070000D01*
X86794730Y-102070000D01*
X86780000Y-102068549D01*
X86765270Y-102070000D01*
X86765267Y-102070000D01*
X86721190Y-102074341D01*
X86677801Y-102087503D01*
X86664639Y-102091496D01*
X86612522Y-102119353D01*
X86578285Y-102147450D01*
X86578279Y-102147456D01*
X86566842Y-102156842D01*
X86557456Y-102168279D01*
X85981824Y-102743912D01*
X84180000Y-102743912D01*
X84135892Y-102748256D01*
X84093480Y-102761122D01*
X84054392Y-102782015D01*
X84020132Y-102810132D01*
X83992015Y-102844392D01*
X83971122Y-102883480D01*
X83958256Y-102925892D01*
X83953912Y-102970000D01*
X83953912Y-104970000D01*
X83958256Y-105014108D01*
X83971122Y-105056520D01*
X83992015Y-105095608D01*
X84020132Y-105129868D01*
X84054392Y-105157985D01*
X84093480Y-105178878D01*
X84135892Y-105191744D01*
X84180000Y-105196088D01*
X86180000Y-105196088D01*
X86224108Y-105191744D01*
X86266520Y-105178878D01*
X86305608Y-105157985D01*
X86339868Y-105129868D01*
X86367985Y-105095608D01*
X86388878Y-105056520D01*
X86401744Y-105014108D01*
X86406088Y-104970000D01*
X86406088Y-103168176D01*
X86904265Y-102670000D01*
X89255736Y-102670000D01*
X89181824Y-102743912D01*
X87680000Y-102743912D01*
X87635892Y-102748256D01*
X87593480Y-102761122D01*
X87554392Y-102782015D01*
X87520132Y-102810132D01*
X87492015Y-102844392D01*
X87471122Y-102883480D01*
X87458256Y-102925892D01*
X87453912Y-102970000D01*
X87453912Y-104970000D01*
X87458256Y-105014108D01*
X87471122Y-105056520D01*
X87492015Y-105095608D01*
X87520132Y-105129868D01*
X87554392Y-105157985D01*
X87593480Y-105178878D01*
X87635892Y-105191744D01*
X87680000Y-105196088D01*
X89680000Y-105196088D01*
X89724108Y-105191744D01*
X89766520Y-105178878D01*
X89805608Y-105157985D01*
X89839868Y-105129868D01*
X89867985Y-105095608D01*
X89888878Y-105056520D01*
X89901744Y-105014108D01*
X89906088Y-104970000D01*
X89906088Y-103070000D01*
X90765277Y-103070000D01*
X90780000Y-103071450D01*
X90794723Y-103070000D01*
X90794733Y-103070000D01*
X90838810Y-103065659D01*
X90895360Y-103048504D01*
X90947477Y-103020647D01*
X90953912Y-103015366D01*
X90953912Y-104970000D01*
X90958256Y-105014108D01*
X90971122Y-105056520D01*
X90992015Y-105095608D01*
X91020132Y-105129868D01*
X91054392Y-105157985D01*
X91093480Y-105178878D01*
X91135892Y-105191744D01*
X91180000Y-105196088D01*
X93180000Y-105196088D01*
X93224108Y-105191744D01*
X93266520Y-105178878D01*
X93305608Y-105157985D01*
X93339868Y-105129868D01*
X93367985Y-105095608D01*
X93388878Y-105056520D01*
X93401744Y-105014108D01*
X93406088Y-104970000D01*
X93406088Y-102970000D01*
X93401744Y-102925892D01*
X93388878Y-102883480D01*
X93367985Y-102844392D01*
X93339868Y-102810132D01*
X93305608Y-102782015D01*
X93266520Y-102761122D01*
X93224108Y-102748256D01*
X93180000Y-102743912D01*
X92280000Y-102743912D01*
X92280000Y-100994263D01*
X94453912Y-103168176D01*
X94453912Y-104970000D01*
X94458256Y-105014108D01*
X94471122Y-105056520D01*
X94492015Y-105095608D01*
X94520132Y-105129868D01*
X94554392Y-105157985D01*
X94593480Y-105178878D01*
X94635892Y-105191744D01*
X94680000Y-105196088D01*
X96680000Y-105196088D01*
X96724108Y-105191744D01*
X96766520Y-105178878D01*
X96805608Y-105157985D01*
X96839868Y-105129868D01*
X96867985Y-105095608D01*
X96888878Y-105056520D01*
X96901744Y-105014108D01*
X96906088Y-104970000D01*
X96906088Y-102970000D01*
X96901744Y-102925892D01*
X96888878Y-102883480D01*
X96867985Y-102844392D01*
X96839868Y-102810132D01*
X96805608Y-102782015D01*
X96766520Y-102761122D01*
X96724108Y-102748256D01*
X96680000Y-102743912D01*
X94878176Y-102743912D01*
X92680000Y-100545737D01*
X92680000Y-98395003D01*
X92692511Y-98364799D01*
X92705000Y-98302010D01*
X92705000Y-98237990D01*
X92692511Y-98175201D01*
X92668012Y-98116055D01*
X92632444Y-98062824D01*
X92587176Y-98017556D01*
X92533945Y-97981988D01*
X92474799Y-97957489D01*
X92412010Y-97945000D01*
X92347990Y-97945000D01*
X92285201Y-97957489D01*
X92226055Y-97981988D01*
X92172824Y-98017556D01*
X92127556Y-98062824D01*
X92091988Y-98116055D01*
X92067489Y-98175201D01*
X92055000Y-98237990D01*
X92055000Y-98302010D01*
X92059650Y-98325387D01*
X92031714Y-98297451D01*
X91997477Y-98269353D01*
X91945360Y-98241497D01*
X91939872Y-98239832D01*
X91839596Y-98139557D01*
X91830963Y-98129037D01*
X91788967Y-98094572D01*
X91741055Y-98068962D01*
X91689066Y-98053191D01*
X91648544Y-98049200D01*
X91648534Y-98049200D01*
X91635000Y-98047867D01*
X91621466Y-98049200D01*
X91270025Y-98049200D01*
X91248012Y-97996055D01*
X91233943Y-97975000D01*
X91248012Y-97953945D01*
X91272511Y-97894799D01*
X91276799Y-97873240D01*
X91315442Y-97834597D01*
X91325963Y-97825963D01*
X91349341Y-97797477D01*
X91360428Y-97783968D01*
X91386038Y-97736055D01*
X91392445Y-97714935D01*
X91401809Y-97684066D01*
X91405800Y-97643544D01*
X91405800Y-97643535D01*
X91407133Y-97630001D01*
X91405800Y-97616467D01*
X91405800Y-97100419D01*
X91408504Y-97095360D01*
X91425659Y-97038810D01*
X91430000Y-96994733D01*
X91430000Y-96270000D01*
X91715277Y-96270000D01*
X91730000Y-96271450D01*
X91744723Y-96270000D01*
X91744733Y-96270000D01*
X91788810Y-96265659D01*
X91845360Y-96248504D01*
X91897477Y-96220647D01*
X91943158Y-96183158D01*
X91952553Y-96171710D01*
X93654263Y-94470000D01*
X99453912Y-94470000D01*
X99453912Y-97470000D01*
X99458256Y-97514108D01*
X99471122Y-97556520D01*
X99492015Y-97595608D01*
X99520132Y-97629868D01*
X99554392Y-97657985D01*
X99593480Y-97678878D01*
X99635892Y-97691744D01*
X99680000Y-97696088D01*
X102680000Y-97696088D01*
X102724108Y-97691744D01*
X102766520Y-97678878D01*
X102805608Y-97657985D01*
X102839868Y-97629868D01*
X102867985Y-97595608D01*
X102888878Y-97556520D01*
X102901744Y-97514108D01*
X102906088Y-97470000D01*
X102906088Y-94470000D01*
X102901744Y-94425892D01*
X102888878Y-94383480D01*
X102867985Y-94344392D01*
X102839868Y-94310132D01*
X102805608Y-94282015D01*
X102766520Y-94261122D01*
X102724108Y-94248256D01*
X102680000Y-94243912D01*
X99680000Y-94243912D01*
X99635892Y-94248256D01*
X99593480Y-94261122D01*
X99554392Y-94282015D01*
X99520132Y-94310132D01*
X99492015Y-94344392D01*
X99471122Y-94383480D01*
X99458256Y-94425892D01*
X99453912Y-94470000D01*
X93654263Y-94470000D01*
X93928176Y-94196088D01*
X95680000Y-94196088D01*
X95724108Y-94191744D01*
X95766520Y-94178878D01*
X95805608Y-94157985D01*
X95839868Y-94129868D01*
X95867985Y-94095608D01*
X95888878Y-94056520D01*
X95901744Y-94014108D01*
X95906088Y-93970000D01*
X95906088Y-91970000D01*
X95901744Y-91925892D01*
X95888878Y-91883480D01*
X95867985Y-91844392D01*
X95839868Y-91810132D01*
X95805608Y-91782015D01*
X95766520Y-91761122D01*
X95724108Y-91748256D01*
X95680000Y-91743912D01*
X93680000Y-91743912D01*
X93635892Y-91748256D01*
X93593480Y-91761122D01*
X93554392Y-91782015D01*
X93520132Y-91810132D01*
X93492015Y-91844392D01*
X93471122Y-91883480D01*
X93458256Y-91925892D01*
X93453912Y-91970000D01*
X93453912Y-93821824D01*
X91605737Y-95670000D01*
X91305003Y-95670000D01*
X91274799Y-95657489D01*
X91212010Y-95645000D01*
X91147990Y-95645000D01*
X91085201Y-95657489D01*
X91026055Y-95681988D01*
X90972824Y-95717556D01*
X90927556Y-95762824D01*
X90891988Y-95816055D01*
X90868375Y-95873063D01*
X90851497Y-95904640D01*
X90834342Y-95961190D01*
X90828550Y-96020000D01*
X90830001Y-96034733D01*
X90830000Y-96994732D01*
X90834341Y-97038809D01*
X90851496Y-97095359D01*
X90854201Y-97100419D01*
X90854200Y-97492046D01*
X90806055Y-97511988D01*
X90782500Y-97527727D01*
X90758945Y-97511988D01*
X90699799Y-97487489D01*
X90678240Y-97483201D01*
X90634599Y-97439560D01*
X90625963Y-97429037D01*
X90583967Y-97394572D01*
X90536055Y-97368962D01*
X90484066Y-97353191D01*
X90443544Y-97349200D01*
X90443534Y-97349200D01*
X90430000Y-97347867D01*
X90416466Y-97349200D01*
X89907791Y-97349200D01*
X89858810Y-97334341D01*
X89814733Y-97330000D01*
X89426213Y-97330000D01*
X89379587Y-97305078D01*
X89313612Y-97285065D01*
X89262189Y-97280000D01*
X89084974Y-97280000D01*
X89030000Y-97225026D01*
X89030000Y-94087818D01*
X89078414Y-94055469D01*
X89165469Y-93968414D01*
X89233868Y-93866048D01*
X89280981Y-93752306D01*
X89305000Y-93631557D01*
X89305000Y-93608443D01*
X90555000Y-93608443D01*
X90555000Y-93731557D01*
X90579019Y-93852306D01*
X90626132Y-93966048D01*
X90694531Y-94068414D01*
X90781586Y-94155469D01*
X90883952Y-94223868D01*
X90997694Y-94270981D01*
X91118443Y-94295000D01*
X91241557Y-94295000D01*
X91362306Y-94270981D01*
X91476048Y-94223868D01*
X91578414Y-94155469D01*
X91665469Y-94068414D01*
X91697818Y-94020000D01*
X92162182Y-94020000D01*
X92194531Y-94068414D01*
X92281586Y-94155469D01*
X92383952Y-94223868D01*
X92497694Y-94270981D01*
X92618443Y-94295000D01*
X92741557Y-94295000D01*
X92862306Y-94270981D01*
X92976048Y-94223868D01*
X93078414Y-94155469D01*
X93165469Y-94068414D01*
X93233868Y-93966048D01*
X93280981Y-93852306D01*
X93305000Y-93731557D01*
X93305000Y-93608443D01*
X93280981Y-93487694D01*
X93233868Y-93373952D01*
X93165469Y-93271586D01*
X93078414Y-93184531D01*
X92976048Y-93116132D01*
X92862306Y-93069019D01*
X92741557Y-93045000D01*
X92618443Y-93045000D01*
X92497694Y-93069019D01*
X92383952Y-93116132D01*
X92281586Y-93184531D01*
X92194531Y-93271586D01*
X92162182Y-93320000D01*
X91697818Y-93320000D01*
X91665469Y-93271586D01*
X91578414Y-93184531D01*
X91476048Y-93116132D01*
X91362306Y-93069019D01*
X91241557Y-93045000D01*
X91118443Y-93045000D01*
X90997694Y-93069019D01*
X90883952Y-93116132D01*
X90781586Y-93184531D01*
X90694531Y-93271586D01*
X90626132Y-93373952D01*
X90579019Y-93487694D01*
X90555000Y-93608443D01*
X89305000Y-93608443D01*
X89305000Y-93508443D01*
X89280981Y-93387694D01*
X89233868Y-93273952D01*
X89165469Y-93171586D01*
X89078414Y-93084531D01*
X88976048Y-93016132D01*
X88862306Y-92969019D01*
X88741557Y-92945000D01*
X88618443Y-92945000D01*
X88497694Y-92969019D01*
X88383952Y-93016132D01*
X88281586Y-93084531D01*
X88194531Y-93171586D01*
X88126132Y-93273952D01*
X88079019Y-93387694D01*
X88055000Y-93508443D01*
X88055000Y-93631557D01*
X88079019Y-93752306D01*
X88126132Y-93866048D01*
X88194531Y-93968414D01*
X88281586Y-94055469D01*
X88330000Y-94087818D01*
X88330001Y-97352802D01*
X88328307Y-97370000D01*
X88335065Y-97438611D01*
X88346104Y-97475000D01*
X88355079Y-97504587D01*
X88387579Y-97565390D01*
X88431316Y-97618685D01*
X88444675Y-97629648D01*
X88680355Y-97865330D01*
X88691315Y-97878685D01*
X88741137Y-97919572D01*
X88744610Y-97922422D01*
X88805413Y-97954922D01*
X88871388Y-97974935D01*
X88940000Y-97981694D01*
X88957196Y-97980000D01*
X89262189Y-97980000D01*
X89313612Y-97974935D01*
X89379587Y-97954922D01*
X89426213Y-97930000D01*
X89814733Y-97930000D01*
X89858810Y-97925659D01*
X89915360Y-97908504D01*
X89929773Y-97900800D01*
X90294975Y-97900800D01*
X90316988Y-97953945D01*
X90331057Y-97975000D01*
X90316988Y-97996055D01*
X90292489Y-98055201D01*
X90288201Y-98076760D01*
X90254560Y-98110401D01*
X90244037Y-98119037D01*
X90209572Y-98161033D01*
X90205257Y-98169106D01*
X90199572Y-98176033D01*
X90173962Y-98223946D01*
X90158191Y-98275935D01*
X90154200Y-98316457D01*
X90154200Y-98316466D01*
X90152867Y-98330000D01*
X90154200Y-98343534D01*
X90154201Y-99059822D01*
X90057694Y-99079019D01*
X89943952Y-99126132D01*
X89841586Y-99194531D01*
X89754531Y-99281586D01*
X89686132Y-99383952D01*
X89639019Y-99497694D01*
X89615000Y-99618443D01*
X89615000Y-99741557D01*
X89638092Y-99857644D01*
X89325737Y-100170000D01*
X89056673Y-100170000D01*
X89078420Y-100155469D01*
X89165475Y-100068414D01*
X89233874Y-99966048D01*
X89280987Y-99852306D01*
X89305006Y-99731557D01*
X89305006Y-99608443D01*
X89280987Y-99487694D01*
X89233874Y-99373952D01*
X89165475Y-99271586D01*
X89078420Y-99184531D01*
X88976054Y-99116132D01*
X88862312Y-99069019D01*
X88741563Y-99045000D01*
X88618449Y-99045000D01*
X88561340Y-99056360D01*
X87610000Y-98105021D01*
X87610000Y-95927818D01*
X87658414Y-95895469D01*
X87745469Y-95808414D01*
X87813868Y-95706048D01*
X87860981Y-95592306D01*
X87885000Y-95471557D01*
X87885000Y-95348443D01*
X87860981Y-95227694D01*
X87813868Y-95113952D01*
X87745469Y-95011586D01*
X87658414Y-94924531D01*
X87556048Y-94856132D01*
X87442306Y-94809019D01*
X87321557Y-94785000D01*
X87198443Y-94785000D01*
X87077694Y-94809019D01*
X86963952Y-94856132D01*
X86861586Y-94924531D01*
X86774531Y-95011586D01*
X86706132Y-95113952D01*
X86659019Y-95227694D01*
X86635000Y-95348443D01*
X86635000Y-95471557D01*
X86659019Y-95592306D01*
X86706132Y-95706048D01*
X86774531Y-95808414D01*
X86861586Y-95895469D01*
X86910000Y-95927818D01*
X86910001Y-98232796D01*
X86908307Y-98249994D01*
X86915065Y-98318605D01*
X86931889Y-98374065D01*
X86935079Y-98384581D01*
X86967579Y-98445384D01*
X87011316Y-98498679D01*
X87024676Y-98509643D01*
X88066366Y-99551334D01*
X88055006Y-99608443D01*
X88055006Y-99731557D01*
X88079025Y-99852306D01*
X88126138Y-99966048D01*
X88194537Y-100068414D01*
X88281592Y-100155469D01*
X88303339Y-100170000D01*
X86406088Y-100170000D01*
X86406088Y-99470000D01*
X86401744Y-99425892D01*
X86388878Y-99383480D01*
X86367985Y-99344392D01*
X86339868Y-99310132D01*
X86305608Y-99282015D01*
X86266520Y-99261122D01*
X86224108Y-99248256D01*
X86180000Y-99243912D01*
X84180000Y-99243912D01*
X84135892Y-99248256D01*
X84093480Y-99261122D01*
X84054392Y-99282015D01*
X84020132Y-99310132D01*
X83992015Y-99344392D01*
X83971122Y-99383480D01*
X83958256Y-99425892D01*
X83953912Y-99470000D01*
X83292191Y-99470000D01*
X83253688Y-99276434D01*
X83172652Y-99080797D01*
X83055007Y-98904728D01*
X82905272Y-98754993D01*
X82729203Y-98637348D01*
X82533566Y-98556312D01*
X82325878Y-98515000D01*
X82114122Y-98515000D01*
X81906434Y-98556312D01*
X81710797Y-98637348D01*
X81534728Y-98754993D01*
X81384993Y-98904728D01*
X81267348Y-99080797D01*
X81186312Y-99276434D01*
X81145000Y-99484122D01*
X77755000Y-99484122D01*
X77755000Y-96944122D01*
X78605000Y-96944122D01*
X78605000Y-97155878D01*
X78646312Y-97363566D01*
X78727348Y-97559203D01*
X78844993Y-97735272D01*
X78994728Y-97885007D01*
X79170797Y-98002652D01*
X79366434Y-98083688D01*
X79574122Y-98125000D01*
X79785878Y-98125000D01*
X79993566Y-98083688D01*
X80189203Y-98002652D01*
X80365272Y-97885007D01*
X80515007Y-97735272D01*
X80632652Y-97559203D01*
X80713688Y-97363566D01*
X80755000Y-97155878D01*
X80755000Y-96944122D01*
X81145000Y-96944122D01*
X81145000Y-97155878D01*
X81186312Y-97363566D01*
X81267348Y-97559203D01*
X81384993Y-97735272D01*
X81534728Y-97885007D01*
X81710797Y-98002652D01*
X81906434Y-98083688D01*
X82114122Y-98125000D01*
X82325878Y-98125000D01*
X82533566Y-98083688D01*
X82729203Y-98002652D01*
X82905272Y-97885007D01*
X83055007Y-97735272D01*
X83172652Y-97559203D01*
X83253688Y-97363566D01*
X83295000Y-97155878D01*
X83295000Y-96944122D01*
X83253688Y-96736434D01*
X83172652Y-96540797D01*
X83055007Y-96364728D01*
X82905272Y-96214993D01*
X82729203Y-96097348D01*
X82533566Y-96016312D01*
X82325878Y-95975000D01*
X82114122Y-95975000D01*
X81906434Y-96016312D01*
X81710797Y-96097348D01*
X81534728Y-96214993D01*
X81384993Y-96364728D01*
X81267348Y-96540797D01*
X81186312Y-96736434D01*
X81145000Y-96944122D01*
X80755000Y-96944122D01*
X80713688Y-96736434D01*
X80632652Y-96540797D01*
X80515007Y-96364728D01*
X80365272Y-96214993D01*
X80189203Y-96097348D01*
X79993566Y-96016312D01*
X79785878Y-95975000D01*
X79574122Y-95975000D01*
X79366434Y-96016312D01*
X79170797Y-96097348D01*
X78994728Y-96214993D01*
X78844993Y-96364728D01*
X78727348Y-96540797D01*
X78646312Y-96736434D01*
X78605000Y-96944122D01*
X77755000Y-96944122D01*
X77755000Y-94404122D01*
X78605000Y-94404122D01*
X78605000Y-94615878D01*
X78646312Y-94823566D01*
X78727348Y-95019203D01*
X78844993Y-95195272D01*
X78994728Y-95345007D01*
X79170797Y-95462652D01*
X79366434Y-95543688D01*
X79574122Y-95585000D01*
X79785878Y-95585000D01*
X79993566Y-95543688D01*
X80189203Y-95462652D01*
X80365272Y-95345007D01*
X80515007Y-95195272D01*
X80632652Y-95019203D01*
X80713688Y-94823566D01*
X80755000Y-94615878D01*
X80755000Y-94404122D01*
X81145000Y-94404122D01*
X81145000Y-94615878D01*
X81186312Y-94823566D01*
X81267348Y-95019203D01*
X81384993Y-95195272D01*
X81534728Y-95345007D01*
X81710797Y-95462652D01*
X81906434Y-95543688D01*
X82114122Y-95585000D01*
X82325878Y-95585000D01*
X82533566Y-95543688D01*
X82729203Y-95462652D01*
X82905272Y-95345007D01*
X83055007Y-95195272D01*
X83172652Y-95019203D01*
X83253688Y-94823566D01*
X83295000Y-94615878D01*
X83295000Y-94408443D01*
X85555000Y-94408443D01*
X85555000Y-94531557D01*
X85579019Y-94652306D01*
X85626132Y-94766048D01*
X85694531Y-94868414D01*
X85781586Y-94955469D01*
X85883952Y-95023868D01*
X85997694Y-95070981D01*
X86118443Y-95095000D01*
X86241557Y-95095000D01*
X86362306Y-95070981D01*
X86476048Y-95023868D01*
X86578414Y-94955469D01*
X86665469Y-94868414D01*
X86733868Y-94766048D01*
X86780981Y-94652306D01*
X86805000Y-94531557D01*
X86805000Y-94408443D01*
X86793640Y-94351334D01*
X86915325Y-94229649D01*
X86928685Y-94218685D01*
X86972422Y-94165390D01*
X86994616Y-94123868D01*
X87004922Y-94104588D01*
X87024935Y-94038612D01*
X87031693Y-93970000D01*
X87030000Y-93952811D01*
X87030000Y-90987818D01*
X87078414Y-90955469D01*
X87165469Y-90868414D01*
X87233868Y-90766048D01*
X87280981Y-90652306D01*
X87305000Y-90531557D01*
X87305000Y-90408443D01*
X87280981Y-90287694D01*
X87233868Y-90173952D01*
X87165469Y-90071586D01*
X87078414Y-89984531D01*
X86976048Y-89916132D01*
X86862306Y-89869019D01*
X86741557Y-89845000D01*
X86618443Y-89845000D01*
X86497694Y-89869019D01*
X86383952Y-89916132D01*
X86281586Y-89984531D01*
X86194531Y-90071586D01*
X86126132Y-90173952D01*
X86079019Y-90287694D01*
X86055000Y-90408443D01*
X86055000Y-90531557D01*
X86079019Y-90652306D01*
X86126132Y-90766048D01*
X86194531Y-90868414D01*
X86281586Y-90955469D01*
X86330000Y-90987818D01*
X86330001Y-93825025D01*
X86298666Y-93856360D01*
X86241557Y-93845000D01*
X86118443Y-93845000D01*
X85997694Y-93869019D01*
X85883952Y-93916132D01*
X85781586Y-93984531D01*
X85694531Y-94071586D01*
X85626132Y-94173952D01*
X85579019Y-94287694D01*
X85555000Y-94408443D01*
X83295000Y-94408443D01*
X83295000Y-94404122D01*
X83253688Y-94196434D01*
X83172652Y-94000797D01*
X83055007Y-93824728D01*
X82905272Y-93674993D01*
X82729203Y-93557348D01*
X82533566Y-93476312D01*
X82325878Y-93435000D01*
X82114122Y-93435000D01*
X81906434Y-93476312D01*
X81710797Y-93557348D01*
X81534728Y-93674993D01*
X81384993Y-93824728D01*
X81267348Y-94000797D01*
X81186312Y-94196434D01*
X81145000Y-94404122D01*
X80755000Y-94404122D01*
X80713688Y-94196434D01*
X80632652Y-94000797D01*
X80515007Y-93824728D01*
X80365272Y-93674993D01*
X80189203Y-93557348D01*
X79993566Y-93476312D01*
X79785878Y-93435000D01*
X79574122Y-93435000D01*
X79366434Y-93476312D01*
X79170797Y-93557348D01*
X78994728Y-93674993D01*
X78844993Y-93824728D01*
X78727348Y-94000797D01*
X78646312Y-94196434D01*
X78605000Y-94404122D01*
X77755000Y-94404122D01*
X77755000Y-91120000D01*
X78603912Y-91120000D01*
X78603912Y-92820000D01*
X78608256Y-92864108D01*
X78621122Y-92906520D01*
X78642015Y-92945608D01*
X78670132Y-92979868D01*
X78704392Y-93007985D01*
X78743480Y-93028878D01*
X78785892Y-93041744D01*
X78830000Y-93046088D01*
X80530000Y-93046088D01*
X80574108Y-93041744D01*
X80616520Y-93028878D01*
X80655608Y-93007985D01*
X80689868Y-92979868D01*
X80717985Y-92945608D01*
X80738878Y-92906520D01*
X80751744Y-92864108D01*
X80756088Y-92820000D01*
X80756088Y-91864122D01*
X81145000Y-91864122D01*
X81145000Y-92075878D01*
X81186312Y-92283566D01*
X81267348Y-92479203D01*
X81384993Y-92655272D01*
X81534728Y-92805007D01*
X81710797Y-92922652D01*
X81906434Y-93003688D01*
X82114122Y-93045000D01*
X82325878Y-93045000D01*
X82533566Y-93003688D01*
X82729203Y-92922652D01*
X82905272Y-92805007D01*
X83055007Y-92655272D01*
X83172652Y-92479203D01*
X83253688Y-92283566D01*
X83295000Y-92075878D01*
X83295000Y-91864122D01*
X83253688Y-91656434D01*
X83172652Y-91460797D01*
X83055007Y-91284728D01*
X82905272Y-91134993D01*
X82729203Y-91017348D01*
X82533566Y-90936312D01*
X82325878Y-90895000D01*
X82114122Y-90895000D01*
X81906434Y-90936312D01*
X81710797Y-91017348D01*
X81534728Y-91134993D01*
X81384993Y-91284728D01*
X81267348Y-91460797D01*
X81186312Y-91656434D01*
X81145000Y-91864122D01*
X80756088Y-91864122D01*
X80756088Y-91120000D01*
X80751744Y-91075892D01*
X80738878Y-91033480D01*
X80717985Y-90994392D01*
X80689868Y-90960132D01*
X80655608Y-90932015D01*
X80616520Y-90911122D01*
X80574108Y-90898256D01*
X80530000Y-90893912D01*
X78830000Y-90893912D01*
X78785892Y-90898256D01*
X78743480Y-90911122D01*
X78704392Y-90932015D01*
X78670132Y-90960132D01*
X78642015Y-90994392D01*
X78621122Y-91033480D01*
X78608256Y-91075892D01*
X78603912Y-91120000D01*
X77755000Y-91120000D01*
X77755000Y-89053000D01*
X103105000Y-89053000D01*
X103105000Y-106895000D01*
G04 #@! TA.AperFunction,Conductor*
G36*
X103105000Y-106895000D02*
G01*
X77755000Y-106895000D01*
X77755000Y-99484122D01*
X81145000Y-99484122D01*
X81145000Y-99695878D01*
X81186312Y-99903566D01*
X81267348Y-100099203D01*
X81384993Y-100275272D01*
X81534728Y-100425007D01*
X81710797Y-100542652D01*
X81906434Y-100623688D01*
X82114122Y-100665000D01*
X82325878Y-100665000D01*
X82533566Y-100623688D01*
X82729203Y-100542652D01*
X82905272Y-100425007D01*
X83055007Y-100275272D01*
X83172652Y-100099203D01*
X83253688Y-99903566D01*
X83295000Y-99695878D01*
X83295000Y-99484122D01*
X83292191Y-99470000D01*
X83953912Y-99470000D01*
X83953912Y-101470000D01*
X83958256Y-101514108D01*
X83971122Y-101556520D01*
X83992015Y-101595608D01*
X84020132Y-101629868D01*
X84054392Y-101657985D01*
X84093480Y-101678878D01*
X84135892Y-101691744D01*
X84180000Y-101696088D01*
X86180000Y-101696088D01*
X86224108Y-101691744D01*
X86266520Y-101678878D01*
X86305608Y-101657985D01*
X86339868Y-101629868D01*
X86367985Y-101595608D01*
X86388878Y-101556520D01*
X86401744Y-101514108D01*
X86406088Y-101470000D01*
X86406088Y-100770000D01*
X89435277Y-100770000D01*
X89450000Y-100771450D01*
X89464723Y-100770000D01*
X89464733Y-100770000D01*
X89508810Y-100765659D01*
X89565360Y-100748504D01*
X89617477Y-100720647D01*
X89663158Y-100683158D01*
X89672553Y-100671710D01*
X90062356Y-100281908D01*
X90178443Y-100305000D01*
X90301557Y-100305000D01*
X90422306Y-100280981D01*
X90536048Y-100233868D01*
X90638414Y-100165469D01*
X90655000Y-100148883D01*
X90655001Y-101770735D01*
X90355737Y-102070000D01*
X86794730Y-102070000D01*
X86780000Y-102068549D01*
X86765270Y-102070000D01*
X86765267Y-102070000D01*
X86721190Y-102074341D01*
X86677801Y-102087503D01*
X86664639Y-102091496D01*
X86612522Y-102119353D01*
X86578285Y-102147450D01*
X86578279Y-102147456D01*
X86566842Y-102156842D01*
X86557456Y-102168279D01*
X85981824Y-102743912D01*
X84180000Y-102743912D01*
X84135892Y-102748256D01*
X84093480Y-102761122D01*
X84054392Y-102782015D01*
X84020132Y-102810132D01*
X83992015Y-102844392D01*
X83971122Y-102883480D01*
X83958256Y-102925892D01*
X83953912Y-102970000D01*
X83953912Y-104970000D01*
X83958256Y-105014108D01*
X83971122Y-105056520D01*
X83992015Y-105095608D01*
X84020132Y-105129868D01*
X84054392Y-105157985D01*
X84093480Y-105178878D01*
X84135892Y-105191744D01*
X84180000Y-105196088D01*
X86180000Y-105196088D01*
X86224108Y-105191744D01*
X86266520Y-105178878D01*
X86305608Y-105157985D01*
X86339868Y-105129868D01*
X86367985Y-105095608D01*
X86388878Y-105056520D01*
X86401744Y-105014108D01*
X86406088Y-104970000D01*
X86406088Y-103168176D01*
X86904265Y-102670000D01*
X89255736Y-102670000D01*
X89181824Y-102743912D01*
X87680000Y-102743912D01*
X87635892Y-102748256D01*
X87593480Y-102761122D01*
X87554392Y-102782015D01*
X87520132Y-102810132D01*
X87492015Y-102844392D01*
X87471122Y-102883480D01*
X87458256Y-102925892D01*
X87453912Y-102970000D01*
X87453912Y-104970000D01*
X87458256Y-105014108D01*
X87471122Y-105056520D01*
X87492015Y-105095608D01*
X87520132Y-105129868D01*
X87554392Y-105157985D01*
X87593480Y-105178878D01*
X87635892Y-105191744D01*
X87680000Y-105196088D01*
X89680000Y-105196088D01*
X89724108Y-105191744D01*
X89766520Y-105178878D01*
X89805608Y-105157985D01*
X89839868Y-105129868D01*
X89867985Y-105095608D01*
X89888878Y-105056520D01*
X89901744Y-105014108D01*
X89906088Y-104970000D01*
X89906088Y-103070000D01*
X90765277Y-103070000D01*
X90780000Y-103071450D01*
X90794723Y-103070000D01*
X90794733Y-103070000D01*
X90838810Y-103065659D01*
X90895360Y-103048504D01*
X90947477Y-103020647D01*
X90953912Y-103015366D01*
X90953912Y-104970000D01*
X90958256Y-105014108D01*
X90971122Y-105056520D01*
X90992015Y-105095608D01*
X91020132Y-105129868D01*
X91054392Y-105157985D01*
X91093480Y-105178878D01*
X91135892Y-105191744D01*
X91180000Y-105196088D01*
X93180000Y-105196088D01*
X93224108Y-105191744D01*
X93266520Y-105178878D01*
X93305608Y-105157985D01*
X93339868Y-105129868D01*
X93367985Y-105095608D01*
X93388878Y-105056520D01*
X93401744Y-105014108D01*
X93406088Y-104970000D01*
X93406088Y-102970000D01*
X93401744Y-102925892D01*
X93388878Y-102883480D01*
X93367985Y-102844392D01*
X93339868Y-102810132D01*
X93305608Y-102782015D01*
X93266520Y-102761122D01*
X93224108Y-102748256D01*
X93180000Y-102743912D01*
X92280000Y-102743912D01*
X92280000Y-100994263D01*
X94453912Y-103168176D01*
X94453912Y-104970000D01*
X94458256Y-105014108D01*
X94471122Y-105056520D01*
X94492015Y-105095608D01*
X94520132Y-105129868D01*
X94554392Y-105157985D01*
X94593480Y-105178878D01*
X94635892Y-105191744D01*
X94680000Y-105196088D01*
X96680000Y-105196088D01*
X96724108Y-105191744D01*
X96766520Y-105178878D01*
X96805608Y-105157985D01*
X96839868Y-105129868D01*
X96867985Y-105095608D01*
X96888878Y-105056520D01*
X96901744Y-105014108D01*
X96906088Y-104970000D01*
X96906088Y-102970000D01*
X96901744Y-102925892D01*
X96888878Y-102883480D01*
X96867985Y-102844392D01*
X96839868Y-102810132D01*
X96805608Y-102782015D01*
X96766520Y-102761122D01*
X96724108Y-102748256D01*
X96680000Y-102743912D01*
X94878176Y-102743912D01*
X92680000Y-100545737D01*
X92680000Y-98395003D01*
X92692511Y-98364799D01*
X92705000Y-98302010D01*
X92705000Y-98237990D01*
X92692511Y-98175201D01*
X92668012Y-98116055D01*
X92632444Y-98062824D01*
X92587176Y-98017556D01*
X92533945Y-97981988D01*
X92474799Y-97957489D01*
X92412010Y-97945000D01*
X92347990Y-97945000D01*
X92285201Y-97957489D01*
X92226055Y-97981988D01*
X92172824Y-98017556D01*
X92127556Y-98062824D01*
X92091988Y-98116055D01*
X92067489Y-98175201D01*
X92055000Y-98237990D01*
X92055000Y-98302010D01*
X92059650Y-98325387D01*
X92031714Y-98297451D01*
X91997477Y-98269353D01*
X91945360Y-98241497D01*
X91939872Y-98239832D01*
X91839596Y-98139557D01*
X91830963Y-98129037D01*
X91788967Y-98094572D01*
X91741055Y-98068962D01*
X91689066Y-98053191D01*
X91648544Y-98049200D01*
X91648534Y-98049200D01*
X91635000Y-98047867D01*
X91621466Y-98049200D01*
X91270025Y-98049200D01*
X91248012Y-97996055D01*
X91233943Y-97975000D01*
X91248012Y-97953945D01*
X91272511Y-97894799D01*
X91276799Y-97873240D01*
X91315442Y-97834597D01*
X91325963Y-97825963D01*
X91349341Y-97797477D01*
X91360428Y-97783968D01*
X91386038Y-97736055D01*
X91392445Y-97714935D01*
X91401809Y-97684066D01*
X91405800Y-97643544D01*
X91405800Y-97643535D01*
X91407133Y-97630001D01*
X91405800Y-97616467D01*
X91405800Y-97100419D01*
X91408504Y-97095360D01*
X91425659Y-97038810D01*
X91430000Y-96994733D01*
X91430000Y-96270000D01*
X91715277Y-96270000D01*
X91730000Y-96271450D01*
X91744723Y-96270000D01*
X91744733Y-96270000D01*
X91788810Y-96265659D01*
X91845360Y-96248504D01*
X91897477Y-96220647D01*
X91943158Y-96183158D01*
X91952553Y-96171710D01*
X93654263Y-94470000D01*
X99453912Y-94470000D01*
X99453912Y-97470000D01*
X99458256Y-97514108D01*
X99471122Y-97556520D01*
X99492015Y-97595608D01*
X99520132Y-97629868D01*
X99554392Y-97657985D01*
X99593480Y-97678878D01*
X99635892Y-97691744D01*
X99680000Y-97696088D01*
X102680000Y-97696088D01*
X102724108Y-97691744D01*
X102766520Y-97678878D01*
X102805608Y-97657985D01*
X102839868Y-97629868D01*
X102867985Y-97595608D01*
X102888878Y-97556520D01*
X102901744Y-97514108D01*
X102906088Y-97470000D01*
X102906088Y-94470000D01*
X102901744Y-94425892D01*
X102888878Y-94383480D01*
X102867985Y-94344392D01*
X102839868Y-94310132D01*
X102805608Y-94282015D01*
X102766520Y-94261122D01*
X102724108Y-94248256D01*
X102680000Y-94243912D01*
X99680000Y-94243912D01*
X99635892Y-94248256D01*
X99593480Y-94261122D01*
X99554392Y-94282015D01*
X99520132Y-94310132D01*
X99492015Y-94344392D01*
X99471122Y-94383480D01*
X99458256Y-94425892D01*
X99453912Y-94470000D01*
X93654263Y-94470000D01*
X93928176Y-94196088D01*
X95680000Y-94196088D01*
X95724108Y-94191744D01*
X95766520Y-94178878D01*
X95805608Y-94157985D01*
X95839868Y-94129868D01*
X95867985Y-94095608D01*
X95888878Y-94056520D01*
X95901744Y-94014108D01*
X95906088Y-93970000D01*
X95906088Y-91970000D01*
X95901744Y-91925892D01*
X95888878Y-91883480D01*
X95867985Y-91844392D01*
X95839868Y-91810132D01*
X95805608Y-91782015D01*
X95766520Y-91761122D01*
X95724108Y-91748256D01*
X95680000Y-91743912D01*
X93680000Y-91743912D01*
X93635892Y-91748256D01*
X93593480Y-91761122D01*
X93554392Y-91782015D01*
X93520132Y-91810132D01*
X93492015Y-91844392D01*
X93471122Y-91883480D01*
X93458256Y-91925892D01*
X93453912Y-91970000D01*
X93453912Y-93821824D01*
X91605737Y-95670000D01*
X91305003Y-95670000D01*
X91274799Y-95657489D01*
X91212010Y-95645000D01*
X91147990Y-95645000D01*
X91085201Y-95657489D01*
X91026055Y-95681988D01*
X90972824Y-95717556D01*
X90927556Y-95762824D01*
X90891988Y-95816055D01*
X90868375Y-95873063D01*
X90851497Y-95904640D01*
X90834342Y-95961190D01*
X90828550Y-96020000D01*
X90830001Y-96034733D01*
X90830000Y-96994732D01*
X90834341Y-97038809D01*
X90851496Y-97095359D01*
X90854201Y-97100419D01*
X90854200Y-97492046D01*
X90806055Y-97511988D01*
X90782500Y-97527727D01*
X90758945Y-97511988D01*
X90699799Y-97487489D01*
X90678240Y-97483201D01*
X90634599Y-97439560D01*
X90625963Y-97429037D01*
X90583967Y-97394572D01*
X90536055Y-97368962D01*
X90484066Y-97353191D01*
X90443544Y-97349200D01*
X90443534Y-97349200D01*
X90430000Y-97347867D01*
X90416466Y-97349200D01*
X89907791Y-97349200D01*
X89858810Y-97334341D01*
X89814733Y-97330000D01*
X89426213Y-97330000D01*
X89379587Y-97305078D01*
X89313612Y-97285065D01*
X89262189Y-97280000D01*
X89084974Y-97280000D01*
X89030000Y-97225026D01*
X89030000Y-94087818D01*
X89078414Y-94055469D01*
X89165469Y-93968414D01*
X89233868Y-93866048D01*
X89280981Y-93752306D01*
X89305000Y-93631557D01*
X89305000Y-93608443D01*
X90555000Y-93608443D01*
X90555000Y-93731557D01*
X90579019Y-93852306D01*
X90626132Y-93966048D01*
X90694531Y-94068414D01*
X90781586Y-94155469D01*
X90883952Y-94223868D01*
X90997694Y-94270981D01*
X91118443Y-94295000D01*
X91241557Y-94295000D01*
X91362306Y-94270981D01*
X91476048Y-94223868D01*
X91578414Y-94155469D01*
X91665469Y-94068414D01*
X91697818Y-94020000D01*
X92162182Y-94020000D01*
X92194531Y-94068414D01*
X92281586Y-94155469D01*
X92383952Y-94223868D01*
X92497694Y-94270981D01*
X92618443Y-94295000D01*
X92741557Y-94295000D01*
X92862306Y-94270981D01*
X92976048Y-94223868D01*
X93078414Y-94155469D01*
X93165469Y-94068414D01*
X93233868Y-93966048D01*
X93280981Y-93852306D01*
X93305000Y-93731557D01*
X93305000Y-93608443D01*
X93280981Y-93487694D01*
X93233868Y-93373952D01*
X93165469Y-93271586D01*
X93078414Y-93184531D01*
X92976048Y-93116132D01*
X92862306Y-93069019D01*
X92741557Y-93045000D01*
X92618443Y-93045000D01*
X92497694Y-93069019D01*
X92383952Y-93116132D01*
X92281586Y-93184531D01*
X92194531Y-93271586D01*
X92162182Y-93320000D01*
X91697818Y-93320000D01*
X91665469Y-93271586D01*
X91578414Y-93184531D01*
X91476048Y-93116132D01*
X91362306Y-93069019D01*
X91241557Y-93045000D01*
X91118443Y-93045000D01*
X90997694Y-93069019D01*
X90883952Y-93116132D01*
X90781586Y-93184531D01*
X90694531Y-93271586D01*
X90626132Y-93373952D01*
X90579019Y-93487694D01*
X90555000Y-93608443D01*
X89305000Y-93608443D01*
X89305000Y-93508443D01*
X89280981Y-93387694D01*
X89233868Y-93273952D01*
X89165469Y-93171586D01*
X89078414Y-93084531D01*
X88976048Y-93016132D01*
X88862306Y-92969019D01*
X88741557Y-92945000D01*
X88618443Y-92945000D01*
X88497694Y-92969019D01*
X88383952Y-93016132D01*
X88281586Y-93084531D01*
X88194531Y-93171586D01*
X88126132Y-93273952D01*
X88079019Y-93387694D01*
X88055000Y-93508443D01*
X88055000Y-93631557D01*
X88079019Y-93752306D01*
X88126132Y-93866048D01*
X88194531Y-93968414D01*
X88281586Y-94055469D01*
X88330000Y-94087818D01*
X88330001Y-97352802D01*
X88328307Y-97370000D01*
X88335065Y-97438611D01*
X88346104Y-97475000D01*
X88355079Y-97504587D01*
X88387579Y-97565390D01*
X88431316Y-97618685D01*
X88444675Y-97629648D01*
X88680355Y-97865330D01*
X88691315Y-97878685D01*
X88741137Y-97919572D01*
X88744610Y-97922422D01*
X88805413Y-97954922D01*
X88871388Y-97974935D01*
X88940000Y-97981694D01*
X88957196Y-97980000D01*
X89262189Y-97980000D01*
X89313612Y-97974935D01*
X89379587Y-97954922D01*
X89426213Y-97930000D01*
X89814733Y-97930000D01*
X89858810Y-97925659D01*
X89915360Y-97908504D01*
X89929773Y-97900800D01*
X90294975Y-97900800D01*
X90316988Y-97953945D01*
X90331057Y-97975000D01*
X90316988Y-97996055D01*
X90292489Y-98055201D01*
X90288201Y-98076760D01*
X90254560Y-98110401D01*
X90244037Y-98119037D01*
X90209572Y-98161033D01*
X90205257Y-98169106D01*
X90199572Y-98176033D01*
X90173962Y-98223946D01*
X90158191Y-98275935D01*
X90154200Y-98316457D01*
X90154200Y-98316466D01*
X90152867Y-98330000D01*
X90154200Y-98343534D01*
X90154201Y-99059822D01*
X90057694Y-99079019D01*
X89943952Y-99126132D01*
X89841586Y-99194531D01*
X89754531Y-99281586D01*
X89686132Y-99383952D01*
X89639019Y-99497694D01*
X89615000Y-99618443D01*
X89615000Y-99741557D01*
X89638092Y-99857644D01*
X89325737Y-100170000D01*
X89056673Y-100170000D01*
X89078420Y-100155469D01*
X89165475Y-100068414D01*
X89233874Y-99966048D01*
X89280987Y-99852306D01*
X89305006Y-99731557D01*
X89305006Y-99608443D01*
X89280987Y-99487694D01*
X89233874Y-99373952D01*
X89165475Y-99271586D01*
X89078420Y-99184531D01*
X88976054Y-99116132D01*
X88862312Y-99069019D01*
X88741563Y-99045000D01*
X88618449Y-99045000D01*
X88561340Y-99056360D01*
X87610000Y-98105021D01*
X87610000Y-95927818D01*
X87658414Y-95895469D01*
X87745469Y-95808414D01*
X87813868Y-95706048D01*
X87860981Y-95592306D01*
X87885000Y-95471557D01*
X87885000Y-95348443D01*
X87860981Y-95227694D01*
X87813868Y-95113952D01*
X87745469Y-95011586D01*
X87658414Y-94924531D01*
X87556048Y-94856132D01*
X87442306Y-94809019D01*
X87321557Y-94785000D01*
X87198443Y-94785000D01*
X87077694Y-94809019D01*
X86963952Y-94856132D01*
X86861586Y-94924531D01*
X86774531Y-95011586D01*
X86706132Y-95113952D01*
X86659019Y-95227694D01*
X86635000Y-95348443D01*
X86635000Y-95471557D01*
X86659019Y-95592306D01*
X86706132Y-95706048D01*
X86774531Y-95808414D01*
X86861586Y-95895469D01*
X86910000Y-95927818D01*
X86910001Y-98232796D01*
X86908307Y-98249994D01*
X86915065Y-98318605D01*
X86931889Y-98374065D01*
X86935079Y-98384581D01*
X86967579Y-98445384D01*
X87011316Y-98498679D01*
X87024676Y-98509643D01*
X88066366Y-99551334D01*
X88055006Y-99608443D01*
X88055006Y-99731557D01*
X88079025Y-99852306D01*
X88126138Y-99966048D01*
X88194537Y-100068414D01*
X88281592Y-100155469D01*
X88303339Y-100170000D01*
X86406088Y-100170000D01*
X86406088Y-99470000D01*
X86401744Y-99425892D01*
X86388878Y-99383480D01*
X86367985Y-99344392D01*
X86339868Y-99310132D01*
X86305608Y-99282015D01*
X86266520Y-99261122D01*
X86224108Y-99248256D01*
X86180000Y-99243912D01*
X84180000Y-99243912D01*
X84135892Y-99248256D01*
X84093480Y-99261122D01*
X84054392Y-99282015D01*
X84020132Y-99310132D01*
X83992015Y-99344392D01*
X83971122Y-99383480D01*
X83958256Y-99425892D01*
X83953912Y-99470000D01*
X83292191Y-99470000D01*
X83253688Y-99276434D01*
X83172652Y-99080797D01*
X83055007Y-98904728D01*
X82905272Y-98754993D01*
X82729203Y-98637348D01*
X82533566Y-98556312D01*
X82325878Y-98515000D01*
X82114122Y-98515000D01*
X81906434Y-98556312D01*
X81710797Y-98637348D01*
X81534728Y-98754993D01*
X81384993Y-98904728D01*
X81267348Y-99080797D01*
X81186312Y-99276434D01*
X81145000Y-99484122D01*
X77755000Y-99484122D01*
X77755000Y-96944122D01*
X78605000Y-96944122D01*
X78605000Y-97155878D01*
X78646312Y-97363566D01*
X78727348Y-97559203D01*
X78844993Y-97735272D01*
X78994728Y-97885007D01*
X79170797Y-98002652D01*
X79366434Y-98083688D01*
X79574122Y-98125000D01*
X79785878Y-98125000D01*
X79993566Y-98083688D01*
X80189203Y-98002652D01*
X80365272Y-97885007D01*
X80515007Y-97735272D01*
X80632652Y-97559203D01*
X80713688Y-97363566D01*
X80755000Y-97155878D01*
X80755000Y-96944122D01*
X81145000Y-96944122D01*
X81145000Y-97155878D01*
X81186312Y-97363566D01*
X81267348Y-97559203D01*
X81384993Y-97735272D01*
X81534728Y-97885007D01*
X81710797Y-98002652D01*
X81906434Y-98083688D01*
X82114122Y-98125000D01*
X82325878Y-98125000D01*
X82533566Y-98083688D01*
X82729203Y-98002652D01*
X82905272Y-97885007D01*
X83055007Y-97735272D01*
X83172652Y-97559203D01*
X83253688Y-97363566D01*
X83295000Y-97155878D01*
X83295000Y-96944122D01*
X83253688Y-96736434D01*
X83172652Y-96540797D01*
X83055007Y-96364728D01*
X82905272Y-96214993D01*
X82729203Y-96097348D01*
X82533566Y-96016312D01*
X82325878Y-95975000D01*
X82114122Y-95975000D01*
X81906434Y-96016312D01*
X81710797Y-96097348D01*
X81534728Y-96214993D01*
X81384993Y-96364728D01*
X81267348Y-96540797D01*
X81186312Y-96736434D01*
X81145000Y-96944122D01*
X80755000Y-96944122D01*
X80713688Y-96736434D01*
X80632652Y-96540797D01*
X80515007Y-96364728D01*
X80365272Y-96214993D01*
X80189203Y-96097348D01*
X79993566Y-96016312D01*
X79785878Y-95975000D01*
X79574122Y-95975000D01*
X79366434Y-96016312D01*
X79170797Y-96097348D01*
X78994728Y-96214993D01*
X78844993Y-96364728D01*
X78727348Y-96540797D01*
X78646312Y-96736434D01*
X78605000Y-96944122D01*
X77755000Y-96944122D01*
X77755000Y-94404122D01*
X78605000Y-94404122D01*
X78605000Y-94615878D01*
X78646312Y-94823566D01*
X78727348Y-95019203D01*
X78844993Y-95195272D01*
X78994728Y-95345007D01*
X79170797Y-95462652D01*
X79366434Y-95543688D01*
X79574122Y-95585000D01*
X79785878Y-95585000D01*
X79993566Y-95543688D01*
X80189203Y-95462652D01*
X80365272Y-95345007D01*
X80515007Y-95195272D01*
X80632652Y-95019203D01*
X80713688Y-94823566D01*
X80755000Y-94615878D01*
X80755000Y-94404122D01*
X81145000Y-94404122D01*
X81145000Y-94615878D01*
X81186312Y-94823566D01*
X81267348Y-95019203D01*
X81384993Y-95195272D01*
X81534728Y-95345007D01*
X81710797Y-95462652D01*
X81906434Y-95543688D01*
X82114122Y-95585000D01*
X82325878Y-95585000D01*
X82533566Y-95543688D01*
X82729203Y-95462652D01*
X82905272Y-95345007D01*
X83055007Y-95195272D01*
X83172652Y-95019203D01*
X83253688Y-94823566D01*
X83295000Y-94615878D01*
X83295000Y-94408443D01*
X85555000Y-94408443D01*
X85555000Y-94531557D01*
X85579019Y-94652306D01*
X85626132Y-94766048D01*
X85694531Y-94868414D01*
X85781586Y-94955469D01*
X85883952Y-95023868D01*
X85997694Y-95070981D01*
X86118443Y-95095000D01*
X86241557Y-95095000D01*
X86362306Y-95070981D01*
X86476048Y-95023868D01*
X86578414Y-94955469D01*
X86665469Y-94868414D01*
X86733868Y-94766048D01*
X86780981Y-94652306D01*
X86805000Y-94531557D01*
X86805000Y-94408443D01*
X86793640Y-94351334D01*
X86915325Y-94229649D01*
X86928685Y-94218685D01*
X86972422Y-94165390D01*
X86994616Y-94123868D01*
X87004922Y-94104588D01*
X87024935Y-94038612D01*
X87031693Y-93970000D01*
X87030000Y-93952811D01*
X87030000Y-90987818D01*
X87078414Y-90955469D01*
X87165469Y-90868414D01*
X87233868Y-90766048D01*
X87280981Y-90652306D01*
X87305000Y-90531557D01*
X87305000Y-90408443D01*
X87280981Y-90287694D01*
X87233868Y-90173952D01*
X87165469Y-90071586D01*
X87078414Y-89984531D01*
X86976048Y-89916132D01*
X86862306Y-89869019D01*
X86741557Y-89845000D01*
X86618443Y-89845000D01*
X86497694Y-89869019D01*
X86383952Y-89916132D01*
X86281586Y-89984531D01*
X86194531Y-90071586D01*
X86126132Y-90173952D01*
X86079019Y-90287694D01*
X86055000Y-90408443D01*
X86055000Y-90531557D01*
X86079019Y-90652306D01*
X86126132Y-90766048D01*
X86194531Y-90868414D01*
X86281586Y-90955469D01*
X86330000Y-90987818D01*
X86330001Y-93825025D01*
X86298666Y-93856360D01*
X86241557Y-93845000D01*
X86118443Y-93845000D01*
X85997694Y-93869019D01*
X85883952Y-93916132D01*
X85781586Y-93984531D01*
X85694531Y-94071586D01*
X85626132Y-94173952D01*
X85579019Y-94287694D01*
X85555000Y-94408443D01*
X83295000Y-94408443D01*
X83295000Y-94404122D01*
X83253688Y-94196434D01*
X83172652Y-94000797D01*
X83055007Y-93824728D01*
X82905272Y-93674993D01*
X82729203Y-93557348D01*
X82533566Y-93476312D01*
X82325878Y-93435000D01*
X82114122Y-93435000D01*
X81906434Y-93476312D01*
X81710797Y-93557348D01*
X81534728Y-93674993D01*
X81384993Y-93824728D01*
X81267348Y-94000797D01*
X81186312Y-94196434D01*
X81145000Y-94404122D01*
X80755000Y-94404122D01*
X80713688Y-94196434D01*
X80632652Y-94000797D01*
X80515007Y-93824728D01*
X80365272Y-93674993D01*
X80189203Y-93557348D01*
X79993566Y-93476312D01*
X79785878Y-93435000D01*
X79574122Y-93435000D01*
X79366434Y-93476312D01*
X79170797Y-93557348D01*
X78994728Y-93674993D01*
X78844993Y-93824728D01*
X78727348Y-94000797D01*
X78646312Y-94196434D01*
X78605000Y-94404122D01*
X77755000Y-94404122D01*
X77755000Y-91120000D01*
X78603912Y-91120000D01*
X78603912Y-92820000D01*
X78608256Y-92864108D01*
X78621122Y-92906520D01*
X78642015Y-92945608D01*
X78670132Y-92979868D01*
X78704392Y-93007985D01*
X78743480Y-93028878D01*
X78785892Y-93041744D01*
X78830000Y-93046088D01*
X80530000Y-93046088D01*
X80574108Y-93041744D01*
X80616520Y-93028878D01*
X80655608Y-93007985D01*
X80689868Y-92979868D01*
X80717985Y-92945608D01*
X80738878Y-92906520D01*
X80751744Y-92864108D01*
X80756088Y-92820000D01*
X80756088Y-91864122D01*
X81145000Y-91864122D01*
X81145000Y-92075878D01*
X81186312Y-92283566D01*
X81267348Y-92479203D01*
X81384993Y-92655272D01*
X81534728Y-92805007D01*
X81710797Y-92922652D01*
X81906434Y-93003688D01*
X82114122Y-93045000D01*
X82325878Y-93045000D01*
X82533566Y-93003688D01*
X82729203Y-92922652D01*
X82905272Y-92805007D01*
X83055007Y-92655272D01*
X83172652Y-92479203D01*
X83253688Y-92283566D01*
X83295000Y-92075878D01*
X83295000Y-91864122D01*
X83253688Y-91656434D01*
X83172652Y-91460797D01*
X83055007Y-91284728D01*
X82905272Y-91134993D01*
X82729203Y-91017348D01*
X82533566Y-90936312D01*
X82325878Y-90895000D01*
X82114122Y-90895000D01*
X81906434Y-90936312D01*
X81710797Y-91017348D01*
X81534728Y-91134993D01*
X81384993Y-91284728D01*
X81267348Y-91460797D01*
X81186312Y-91656434D01*
X81145000Y-91864122D01*
X80756088Y-91864122D01*
X80756088Y-91120000D01*
X80751744Y-91075892D01*
X80738878Y-91033480D01*
X80717985Y-90994392D01*
X80689868Y-90960132D01*
X80655608Y-90932015D01*
X80616520Y-90911122D01*
X80574108Y-90898256D01*
X80530000Y-90893912D01*
X78830000Y-90893912D01*
X78785892Y-90898256D01*
X78743480Y-90911122D01*
X78704392Y-90932015D01*
X78670132Y-90960132D01*
X78642015Y-90994392D01*
X78621122Y-91033480D01*
X78608256Y-91075892D01*
X78603912Y-91120000D01*
X77755000Y-91120000D01*
X77755000Y-89053000D01*
X103105000Y-89053000D01*
X103105000Y-106895000D01*
G37*
G04 #@! TD.AperFunction*
M02*
