G04 #@! TF.GenerationSoftware,KiCad,Pcbnew,(5.1.10)-1*
G04 #@! TF.CreationDate,2021-12-08T09:06:10-05:00*
G04 #@! TF.ProjectId,WS2812_Driver,57533238-3132-45f4-9472-697665722e6b,rev?*
G04 #@! TF.SameCoordinates,Original*
G04 #@! TF.FileFunction,Soldermask,Top*
G04 #@! TF.FilePolarity,Negative*
%FSLAX46Y46*%
G04 Gerber Fmt 4.6, Leading zero omitted, Abs format (unit mm)*
G04 Created by KiCad (PCBNEW (5.1.10)-1) date 2021-12-08 09:06:10*
%MOMM*%
%LPD*%
G01*
G04 APERTURE LIST*
%ADD10O,1.800000X1.800000*%
%ADD11C,0.300000*%
G04 APERTURE END LIST*
D10*
X82220000Y-99590000D03*
X79680000Y-99590000D03*
X82220000Y-97050000D03*
X79680000Y-97050000D03*
X82220000Y-94510000D03*
X79680000Y-94510000D03*
X82220000Y-91970000D03*
G36*
G01*
X78780000Y-92820000D02*
X78780000Y-91120000D01*
G75*
G02*
X78830000Y-91070000I50000J0D01*
G01*
X80530000Y-91070000D01*
G75*
G02*
X80580000Y-91120000I0J-50000D01*
G01*
X80580000Y-92820000D01*
G75*
G02*
X80530000Y-92870000I-50000J0D01*
G01*
X78830000Y-92870000D01*
G75*
G02*
X78780000Y-92820000I0J50000D01*
G01*
G37*
D11*
X90255000Y-98500000D03*
X90605000Y-98500000D03*
X90955000Y-98500000D03*
X91305000Y-98500000D03*
X90255000Y-98150000D03*
X90255000Y-97800000D03*
X90255000Y-97450000D03*
X90605000Y-98150000D03*
X90605000Y-97800000D03*
X90605000Y-97450000D03*
X90955000Y-98150000D03*
X90955000Y-97800000D03*
X90955000Y-97450000D03*
X91305000Y-98150000D03*
X91305000Y-97800000D03*
X91305000Y-97450000D03*
G36*
G01*
X87380000Y-91280000D02*
X88130000Y-91280000D01*
G75*
G02*
X88180000Y-91330000I0J-50000D01*
G01*
X88180000Y-91610000D01*
G75*
G02*
X88130000Y-91660000I-50000J0D01*
G01*
X87380000Y-91660000D01*
G75*
G02*
X87330000Y-91610000I0J50000D01*
G01*
X87330000Y-91330000D01*
G75*
G02*
X87380000Y-91280000I50000J0D01*
G01*
G37*
G36*
G01*
X87380000Y-91780000D02*
X88130000Y-91780000D01*
G75*
G02*
X88180000Y-91830000I0J-50000D01*
G01*
X88180000Y-92110000D01*
G75*
G02*
X88130000Y-92160000I-50000J0D01*
G01*
X87380000Y-92160000D01*
G75*
G02*
X87330000Y-92110000I0J50000D01*
G01*
X87330000Y-91830000D01*
G75*
G02*
X87380000Y-91780000I50000J0D01*
G01*
G37*
G36*
G01*
X87380000Y-92280000D02*
X88130000Y-92280000D01*
G75*
G02*
X88180000Y-92330000I0J-50000D01*
G01*
X88180000Y-92610000D01*
G75*
G02*
X88130000Y-92660000I-50000J0D01*
G01*
X87380000Y-92660000D01*
G75*
G02*
X87330000Y-92610000I0J50000D01*
G01*
X87330000Y-92330000D01*
G75*
G02*
X87380000Y-92280000I50000J0D01*
G01*
G37*
G36*
G01*
X86230000Y-92280000D02*
X86980000Y-92280000D01*
G75*
G02*
X87030000Y-92330000I0J-50000D01*
G01*
X87030000Y-92610000D01*
G75*
G02*
X86980000Y-92660000I-50000J0D01*
G01*
X86230000Y-92660000D01*
G75*
G02*
X86180000Y-92610000I0J50000D01*
G01*
X86180000Y-92330000D01*
G75*
G02*
X86230000Y-92280000I50000J0D01*
G01*
G37*
G36*
G01*
X86230000Y-91780000D02*
X86980000Y-91780000D01*
G75*
G02*
X87030000Y-91830000I0J-50000D01*
G01*
X87030000Y-92110000D01*
G75*
G02*
X86980000Y-92160000I-50000J0D01*
G01*
X86230000Y-92160000D01*
G75*
G02*
X86180000Y-92110000I0J50000D01*
G01*
X86180000Y-91830000D01*
G75*
G02*
X86230000Y-91780000I50000J0D01*
G01*
G37*
G36*
G01*
X86230000Y-91280000D02*
X87080000Y-91280000D01*
G75*
G02*
X87130000Y-91330000I0J-50000D01*
G01*
X87130000Y-91610000D01*
G75*
G02*
X87080000Y-91660000I-50000J0D01*
G01*
X86230000Y-91660000D01*
G75*
G02*
X86180000Y-91610000I0J50000D01*
G01*
X86180000Y-91330000D01*
G75*
G02*
X86230000Y-91280000I50000J0D01*
G01*
G37*
G36*
G01*
X95076799Y-96120001D02*
X95076799Y-95820001D01*
G75*
G02*
X95126799Y-95770001I50000J0D01*
G01*
X95629999Y-95770001D01*
G75*
G02*
X95679999Y-95820001I0J-50000D01*
G01*
X95679999Y-96120001D01*
G75*
G02*
X95629999Y-96170001I-50000J0D01*
G01*
X95126799Y-96170001D01*
G75*
G02*
X95076799Y-96120001I0J50000D01*
G01*
G37*
G36*
G01*
X95076799Y-96620000D02*
X95076799Y-96320000D01*
G75*
G02*
X95126799Y-96270000I50000J0D01*
G01*
X95629999Y-96270000D01*
G75*
G02*
X95679999Y-96320000I0J-50000D01*
G01*
X95679999Y-96620000D01*
G75*
G02*
X95629999Y-96670000I-50000J0D01*
G01*
X95126799Y-96670000D01*
G75*
G02*
X95076799Y-96620000I0J50000D01*
G01*
G37*
G36*
G01*
X95076799Y-97119999D02*
X95076799Y-96819999D01*
G75*
G02*
X95126799Y-96769999I50000J0D01*
G01*
X95629999Y-96769999D01*
G75*
G02*
X95679999Y-96819999I0J-50000D01*
G01*
X95679999Y-97119999D01*
G75*
G02*
X95629999Y-97169999I-50000J0D01*
G01*
X95126799Y-97169999D01*
G75*
G02*
X95076799Y-97119999I0J50000D01*
G01*
G37*
G36*
G01*
X96680001Y-97119999D02*
X96680001Y-96819999D01*
G75*
G02*
X96730001Y-96769999I50000J0D01*
G01*
X97233201Y-96769999D01*
G75*
G02*
X97283201Y-96819999I0J-50000D01*
G01*
X97283201Y-97119999D01*
G75*
G02*
X97233201Y-97169999I-50000J0D01*
G01*
X96730001Y-97169999D01*
G75*
G02*
X96680001Y-97119999I0J50000D01*
G01*
G37*
G36*
G01*
X96680001Y-96620000D02*
X96680001Y-96320000D01*
G75*
G02*
X96730001Y-96270000I50000J0D01*
G01*
X97233201Y-96270000D01*
G75*
G02*
X97283201Y-96320000I0J-50000D01*
G01*
X97283201Y-96620000D01*
G75*
G02*
X97233201Y-96670000I-50000J0D01*
G01*
X96730001Y-96670000D01*
G75*
G02*
X96680001Y-96620000I0J50000D01*
G01*
G37*
G36*
G01*
X96680001Y-96120001D02*
X96680001Y-95820001D01*
G75*
G02*
X96730001Y-95770001I50000J0D01*
G01*
X97233201Y-95770001D01*
G75*
G02*
X97283201Y-95820001I0J-50000D01*
G01*
X97283201Y-96120001D01*
G75*
G02*
X97233201Y-96170001I-50000J0D01*
G01*
X96730001Y-96170001D01*
G75*
G02*
X96680001Y-96120001I0J50000D01*
G01*
G37*
G36*
G01*
X91390000Y-94770000D02*
X90970000Y-94770000D01*
G75*
G02*
X90810000Y-94610000I0J160000D01*
G01*
X90810000Y-94290000D01*
G75*
G02*
X90970000Y-94130000I160000J0D01*
G01*
X91390000Y-94130000D01*
G75*
G02*
X91550000Y-94290000I0J-160000D01*
G01*
X91550000Y-94610000D01*
G75*
G02*
X91390000Y-94770000I-160000J0D01*
G01*
G37*
G36*
G01*
X91390000Y-95790000D02*
X90970000Y-95790000D01*
G75*
G02*
X90810000Y-95630000I0J160000D01*
G01*
X90810000Y-95310000D01*
G75*
G02*
X90970000Y-95150000I160000J0D01*
G01*
X91390000Y-95150000D01*
G75*
G02*
X91550000Y-95310000I0J-160000D01*
G01*
X91550000Y-95630000D01*
G75*
G02*
X91390000Y-95790000I-160000J0D01*
G01*
G37*
G36*
G01*
X89970000Y-101170000D02*
X90390000Y-101170000D01*
G75*
G02*
X90550000Y-101330000I0J-160000D01*
G01*
X90550000Y-101650000D01*
G75*
G02*
X90390000Y-101810000I-160000J0D01*
G01*
X89970000Y-101810000D01*
G75*
G02*
X89810000Y-101650000I0J160000D01*
G01*
X89810000Y-101330000D01*
G75*
G02*
X89970000Y-101170000I160000J0D01*
G01*
G37*
G36*
G01*
X89970000Y-100150000D02*
X90390000Y-100150000D01*
G75*
G02*
X90550000Y-100310000I0J-160000D01*
G01*
X90550000Y-100630000D01*
G75*
G02*
X90390000Y-100790000I-160000J0D01*
G01*
X89970000Y-100790000D01*
G75*
G02*
X89810000Y-100630000I0J160000D01*
G01*
X89810000Y-100310000D01*
G75*
G02*
X89970000Y-100150000I160000J0D01*
G01*
G37*
G36*
G01*
X85390000Y-93780000D02*
X84970000Y-93780000D01*
G75*
G02*
X84810000Y-93620000I0J160000D01*
G01*
X84810000Y-93300000D01*
G75*
G02*
X84970000Y-93140000I160000J0D01*
G01*
X85390000Y-93140000D01*
G75*
G02*
X85550000Y-93300000I0J-160000D01*
G01*
X85550000Y-93620000D01*
G75*
G02*
X85390000Y-93780000I-160000J0D01*
G01*
G37*
G36*
G01*
X85390000Y-94800000D02*
X84970000Y-94800000D01*
G75*
G02*
X84810000Y-94640000I0J160000D01*
G01*
X84810000Y-94320000D01*
G75*
G02*
X84970000Y-94160000I160000J0D01*
G01*
X85390000Y-94160000D01*
G75*
G02*
X85550000Y-94320000I0J-160000D01*
G01*
X85550000Y-94640000D01*
G75*
G02*
X85390000Y-94800000I-160000J0D01*
G01*
G37*
G36*
G01*
X99630000Y-106470000D02*
X99630000Y-103470000D01*
G75*
G02*
X99680000Y-103420000I50000J0D01*
G01*
X102680000Y-103420000D01*
G75*
G02*
X102730000Y-103470000I0J-50000D01*
G01*
X102730000Y-106470000D01*
G75*
G02*
X102680000Y-106520000I-50000J0D01*
G01*
X99680000Y-106520000D01*
G75*
G02*
X99630000Y-106470000I0J50000D01*
G01*
G37*
G36*
G01*
X99630000Y-97470000D02*
X99630000Y-94470000D01*
G75*
G02*
X99680000Y-94420000I50000J0D01*
G01*
X102680000Y-94420000D01*
G75*
G02*
X102730000Y-94470000I0J-50000D01*
G01*
X102730000Y-97470000D01*
G75*
G02*
X102680000Y-97520000I-50000J0D01*
G01*
X99680000Y-97520000D01*
G75*
G02*
X99630000Y-97470000I0J50000D01*
G01*
G37*
G36*
G01*
X99630000Y-87970000D02*
X99630000Y-84970000D01*
G75*
G02*
X99680000Y-84920000I50000J0D01*
G01*
X102680000Y-84920000D01*
G75*
G02*
X102730000Y-84970000I0J-50000D01*
G01*
X102730000Y-87970000D01*
G75*
G02*
X102680000Y-88020000I-50000J0D01*
G01*
X99680000Y-88020000D01*
G75*
G02*
X99630000Y-87970000I0J50000D01*
G01*
G37*
G36*
G01*
X78130000Y-106470000D02*
X78130000Y-103470000D01*
G75*
G02*
X78180000Y-103420000I50000J0D01*
G01*
X81180000Y-103420000D01*
G75*
G02*
X81230000Y-103470000I0J-50000D01*
G01*
X81230000Y-106470000D01*
G75*
G02*
X81180000Y-106520000I-50000J0D01*
G01*
X78180000Y-106520000D01*
G75*
G02*
X78130000Y-106470000I0J50000D01*
G01*
G37*
G36*
G01*
X78130000Y-87970000D02*
X78130000Y-84970000D01*
G75*
G02*
X78180000Y-84920000I50000J0D01*
G01*
X81180000Y-84920000D01*
G75*
G02*
X81230000Y-84970000I0J-50000D01*
G01*
X81230000Y-87970000D01*
G75*
G02*
X81180000Y-88020000I-50000J0D01*
G01*
X78180000Y-88020000D01*
G75*
G02*
X78130000Y-87970000I0J50000D01*
G01*
G37*
G36*
G01*
X89085000Y-92120000D02*
X89475000Y-92120000D01*
G75*
G02*
X89640000Y-92285000I0J-165000D01*
G01*
X89640000Y-92615000D01*
G75*
G02*
X89475000Y-92780000I-165000J0D01*
G01*
X89085000Y-92780000D01*
G75*
G02*
X88920000Y-92615000I0J165000D01*
G01*
X88920000Y-92285000D01*
G75*
G02*
X89085000Y-92120000I165000J0D01*
G01*
G37*
G36*
G01*
X89085000Y-91160000D02*
X89475000Y-91160000D01*
G75*
G02*
X89640000Y-91325000I0J-165000D01*
G01*
X89640000Y-91655000D01*
G75*
G02*
X89475000Y-91820000I-165000J0D01*
G01*
X89085000Y-91820000D01*
G75*
G02*
X88920000Y-91655000I0J165000D01*
G01*
X88920000Y-91325000D01*
G75*
G02*
X89085000Y-91160000I165000J0D01*
G01*
G37*
G36*
G01*
X90485000Y-92120000D02*
X90875000Y-92120000D01*
G75*
G02*
X91040000Y-92285000I0J-165000D01*
G01*
X91040000Y-92615000D01*
G75*
G02*
X90875000Y-92780000I-165000J0D01*
G01*
X90485000Y-92780000D01*
G75*
G02*
X90320000Y-92615000I0J165000D01*
G01*
X90320000Y-92285000D01*
G75*
G02*
X90485000Y-92120000I165000J0D01*
G01*
G37*
G36*
G01*
X90485000Y-91160000D02*
X90875000Y-91160000D01*
G75*
G02*
X91040000Y-91325000I0J-165000D01*
G01*
X91040000Y-91655000D01*
G75*
G02*
X90875000Y-91820000I-165000J0D01*
G01*
X90485000Y-91820000D01*
G75*
G02*
X90320000Y-91655000I0J165000D01*
G01*
X90320000Y-91325000D01*
G75*
G02*
X90485000Y-91160000I165000J0D01*
G01*
G37*
G36*
G01*
X97485000Y-88620000D02*
X97875000Y-88620000D01*
G75*
G02*
X98040000Y-88785000I0J-165000D01*
G01*
X98040000Y-89115000D01*
G75*
G02*
X97875000Y-89280000I-165000J0D01*
G01*
X97485000Y-89280000D01*
G75*
G02*
X97320000Y-89115000I0J165000D01*
G01*
X97320000Y-88785000D01*
G75*
G02*
X97485000Y-88620000I165000J0D01*
G01*
G37*
G36*
G01*
X97485000Y-87660000D02*
X97875000Y-87660000D01*
G75*
G02*
X98040000Y-87825000I0J-165000D01*
G01*
X98040000Y-88155000D01*
G75*
G02*
X97875000Y-88320000I-165000J0D01*
G01*
X97485000Y-88320000D01*
G75*
G02*
X97320000Y-88155000I0J165000D01*
G01*
X97320000Y-87825000D01*
G75*
G02*
X97485000Y-87660000I165000J0D01*
G01*
G37*
G36*
G01*
X84985000Y-92100000D02*
X85375000Y-92100000D01*
G75*
G02*
X85540000Y-92265000I0J-165000D01*
G01*
X85540000Y-92595000D01*
G75*
G02*
X85375000Y-92760000I-165000J0D01*
G01*
X84985000Y-92760000D01*
G75*
G02*
X84820000Y-92595000I0J165000D01*
G01*
X84820000Y-92265000D01*
G75*
G02*
X84985000Y-92100000I165000J0D01*
G01*
G37*
G36*
G01*
X84985000Y-91140000D02*
X85375000Y-91140000D01*
G75*
G02*
X85540000Y-91305000I0J-165000D01*
G01*
X85540000Y-91635000D01*
G75*
G02*
X85375000Y-91800000I-165000J0D01*
G01*
X84985000Y-91800000D01*
G75*
G02*
X84820000Y-91635000I0J165000D01*
G01*
X84820000Y-91305000D01*
G75*
G02*
X84985000Y-91140000I165000J0D01*
G01*
G37*
M02*
